<?xml version="1.0" encoding="UTF-8"?>
<svg version="1.1" xmlns="http://www.w3.org/2000/svg" width="699" height="699">
<path d="M0 0 C1.17078094 -0.00960754 2.34156189 -0.01921509 3.54782104 -0.02911377 C4.82770905 -0.03336365 6.10759705 -0.03761353 7.42626953 -0.04199219 C8.41367315 -0.04623325 8.41367315 -0.04623325 9.42102432 -0.05056 C12.9351466 -0.06560819 16.44922758 -0.07478984 19.96337891 -0.07910156 C22.81410054 -0.0834108 25.66450653 -0.0969907 28.51513672 -0.12011719 C51.90489056 -0.30612165 74.86050181 0.92294882 97.92190552 5.24456787 C101.816401 5.96654487 105.47363331 6.28987805 109.43408203 6.16113281 C109.43408203 6.82113281 109.43408203 7.48113281 109.43408203 8.16113281 C110.48595703 8.25394531 111.53783203 8.34675781 112.62158203 8.44238281 C118.71731291 9.21236987 124.54213498 10.96495398 130.43408203 12.66113281 C131.65708008 13.01135498 132.88007813 13.36157715 134.14013672 13.72241211 C145.31128494 16.99449888 156.16045209 20.9513696 166.99072266 25.20263672 C174.09908752 28.02781414 174.09908752 28.02781414 181.43408203 30.16113281 C181.43408203 30.82113281 181.43408203 31.48113281 181.43408203 32.16113281 C182.09408203 32.40863281 182.75408203 32.65613281 183.43408203 32.91113281 C186.58508247 34.22404966 189.55668491 35.75178104 192.56689453 37.35644531 C194.55438908 38.35901955 194.55438908 38.35901955 197.43408203 38.16113281 C198.46488735 39.12934787 199.46139284 40.13454831 200.43408203 41.16113281 C201.77289121 42.03359041 203.14215017 42.86034047 204.53173828 43.64941406 C205.72730347 44.33366455 205.72730347 44.33366455 206.94702148 45.03173828 C207.78837646 45.50756348 208.62973145 45.98338867 209.49658203 46.47363281 C211.22076654 47.46151942 212.94472709 48.44979701 214.66845703 49.43847656 C215.49410156 49.9101123 216.31974609 50.38174805 217.17041016 50.86767578 C228.84140346 57.53645517 228.84140346 57.53645517 232.93408203 61.03613281 C235.14121161 63.37701562 235.14121161 63.37701562 237.43408203 63.16113281 C238.59774243 64.30550602 239.7559055 65.45597055 240.88671875 66.6328125 C243.88079316 69.59003968 247.21822857 72.15383434 250.49658203 74.78613281 C251.20363281 75.35847656 251.91068359 75.93082031 252.63916016 76.52050781 C256.53800591 79.67016153 256.53800591 79.67016153 260.52563477 82.70556641 C263.06048007 84.63888452 265.17942777 86.90647855 267.43408203 89.16113281 C268.72063199 90.27125714 270.01272202 91.37498022 271.30908203 92.47363281 C274.76145209 95.46051477 277.7146075 98.65843891 280.66064453 102.13769531 C282.45870121 104.18922253 284.34982464 106.07632822 286.30908203 107.97363281 C290.60673467 112.22188714 294.3772677 116.81491096 298.13769531 121.53955078 C299.56865702 123.32946559 301.01435896 125.10687278 302.46142578 126.88378906 C307.40790052 132.98153245 312.26109765 138.9946767 316.34814453 145.71972656 C316.70650391 146.19539062 317.06486328 146.67105469 317.43408203 147.16113281 C318.09408203 147.16113281 318.75408203 147.16113281 319.43408203 147.16113281 C319.53076172 147.88429687 319.62744141 148.60746094 319.72705078 149.35253906 C320.54048051 152.58378755 321.79086063 154.40597292 323.74658203 157.09863281 C337.77006635 177.55583036 348.10914351 200.6243635 356.58154297 223.85009766 C357.14852741 225.38706063 357.72989046 226.91879766 358.32568359 228.44482422 C359.51363917 231.49252079 360.43408203 233.85859915 360.43408203 237.16113281 C361.09408203 237.49113281 361.75408203 237.82113281 362.43408203 238.16113281 C362.96582031 240.05737305 362.96582031 240.05737305 363.37939453 242.53222656 C364.05391933 246.23948323 364.83350896 249.86674361 365.80126953 253.50878906 C369.36517851 266.98643826 372.04061821 280.41301297 373.99169922 294.21679688 C374.28321341 296.15700719 374.6112485 298.09213148 374.97802734 300.01953125 C376.91853015 310.65265939 376.74377231 321.26727852 376.68408203 332.03613281 C376.68064789 333.04267914 376.67721375 334.04922546 376.67367554 335.08627319 C376.61576836 349.53073693 376.41478351 363.83255286 374.43408203 378.16113281 C374.27278809 379.36415039 374.11149414 380.56716797 373.9453125 381.80664062 C368.65089086 420.75947272 358.09635292 457.97379795 340.43408203 493.16113281 C339.81919922 494.39718262 339.81919922 494.39718262 339.19189453 495.65820312 C324.89325917 524.19549636 305.65578605 552.11914103 282.43408203 574.16113281 C279.74771645 576.78780138 277.51822509 579.03491822 275.43408203 582.16113281 C274.77408203 582.16113281 274.11408203 582.16113281 273.43408203 582.16113281 C273.43408203 582.82113281 273.43408203 583.48113281 273.43408203 584.16113281 C272.03564453 585.57128906 272.03564453 585.57128906 270.05908203 587.22363281 C266.91229996 589.89179594 263.84200515 592.6142153 260.80908203 595.41113281 C254.60312333 600.99460934 248.0859603 606.12377216 241.43408203 611.16113281 C240.75313477 611.67724121 240.0721875 612.19334961 239.37060547 612.72509766 C218.30420467 628.57556184 195.29672838 641.74764846 171.18408203 652.41113281 C170.5347168 652.69899658 169.88535156 652.98686035 169.21630859 653.28344727 C166.43407738 654.47243173 164.49609079 655.16113281 161.43408203 655.16113281 C161.10408203 655.82113281 160.77408203 656.48113281 160.43408203 657.16113281 C158.21954208 658.05197837 156.04662147 658.8246006 153.77783203 659.55175781 C153.09261978 659.77699631 152.40740753 660.0022348 151.70143127 660.23429871 C149.44877111 660.96999193 147.19209303 661.6920401 144.93408203 662.41113281 C144.16289032 662.65824005 143.39169861 662.90534729 142.59713745 663.15994263 C114.56956173 672.11153478 86.51506111 677.59472311 57.12548828 679.56640625 C55.65208984 679.66550293 55.65208984 679.66550293 54.14892578 679.76660156 C53.28388428 679.81969482 52.41884277 679.87278809 51.52758789 679.92749023 C49.37772245 680.04545888 49.37772245 680.04545888 47.43408203 681.16113281 C-7.82210077 682.91706388 -73.04836192 671.67976248 -120.6887207 643.08789062 C-122.66534008 641.93979127 -122.66534008 641.93979127 -125.56591797 642.16113281 C-125.89591797 641.50113281 -126.22591797 640.84113281 -126.56591797 640.16113281 C-128.09494423 639.22887214 -129.66628411 638.36561299 -131.25341797 637.53613281 C-132.25373047 637.00117187 -133.25404297 636.46621094 -134.28466797 635.91503906 C-135.36748047 635.33625 -136.45029297 634.75746094 -137.56591797 634.16113281 C-158.18915554 622.94110952 -176.39657931 608.85116197 -194.06054688 593.47119141 C-195.38554757 592.31810128 -196.71557781 591.17079591 -198.04638672 590.02441406 C-201.69514346 586.86854754 -205.30820181 583.72425986 -208.56591797 580.16113281 C-208.56591797 579.50113281 -208.56591797 578.84113281 -208.56591797 578.16113281 C-209.22591797 578.16113281 -209.88591797 578.16113281 -210.56591797 578.16113281 C-210.56591797 577.50113281 -210.56591797 576.84113281 -210.56591797 576.16113281 C-211.34966797 575.91363281 -212.13341797 575.66613281 -212.94091797 575.41113281 C-216.04975486 573.93073429 -216.11916918 573.13714458 -217.56591797 570.16113281 C-218.97464608 568.58561624 -218.97464608 568.58561624 -220.62841797 567.09863281 C-225.38517958 562.4800344 -229.42707704 557.32928549 -233.56591797 552.16113281 C-234.21431641 551.37996094 -234.86271484 550.59878906 -235.53076172 549.79394531 C-243.27357205 540.38856835 -250.15143328 530.24334396 -256.46362305 519.82958984 C-257.59010327 518.00348185 -257.59010327 518.00348185 -259.56591797 516.16113281 C-261.71897632 512.58270483 -263.61152105 508.85115765 -265.56591797 505.16113281 C-266.18877686 503.99106689 -266.18877686 503.99106689 -266.82421875 502.79736328 C-282.56591797 473.19265 -282.56591797 473.19265 -282.56591797 468.16113281 C-283.22591797 467.83113281 -283.88591797 467.50113281 -284.56591797 467.16113281 C-284.8992513 464.82779948 -285.23258464 462.49446615 -285.56591797 460.16113281 C-286.22591797 459.83113281 -286.88591797 459.50113281 -287.56591797 459.16113281 C-288.20654297 457.54394531 -288.20654297 457.54394531 -288.81591797 455.28613281 C-289.78495507 451.83577342 -290.7970188 448.41255741 -291.91748047 445.00878906 C-303.10230384 410.93927646 -308.77940107 375.51536214 -308.81591797 339.66113281 C-308.81692505 338.95958069 -308.81793213 338.25802856 -308.81896973 337.53521729 C-308.75161806 266.96453236 -286.17702354 195.16449329 -243.00561523 138.98071289 C-240.78688196 136.05257478 -239.29690964 133.75541791 -238.56591797 130.16113281 C-237.90591797 130.16113281 -237.24591797 130.16113281 -236.56591797 130.16113281 C-234.51934564 128.0247685 -234.51934564 128.0247685 -232.44091797 125.34863281 C-231.71646484 124.4553125 -230.99201172 123.56199219 -230.24560547 122.64160156 C-228.28556598 120.246404 -228.28556598 120.246404 -228.56591797 117.16113281 C-226.8992513 116.16113281 -225.23258464 115.16113281 -223.56591797 114.16113281 C-221.24767595 111.96852074 -219.13730394 109.59438607 -217.00341797 107.22363281 C-215.76934906 105.87840575 -214.53364245 104.53467942 -213.29638672 103.19238281 C-212.67683105 102.51949219 -212.05727539 101.84660156 -211.41894531 101.15332031 C-208.60251733 98.12538193 -205.72592495 95.16147816 -202.81591797 92.22363281 C-202.31503662 91.71002197 -201.81415527 91.19641113 -201.2980957 90.66723633 C-200.09301458 89.45838343 -198.83402009 88.30370134 -197.56591797 87.16113281 C-196.90591797 87.16113281 -196.24591797 87.16113281 -195.56591797 87.16113281 C-195.56591797 86.50113281 -195.56591797 85.84113281 -195.56591797 85.16113281 C-194.03754527 83.76513886 -192.43941698 82.44525632 -190.81591797 81.16113281 C-189.80400391 80.35417969 -188.79208984 79.54722656 -187.74951172 78.71582031 C-187.2195459 78.29397461 -186.68958008 77.87212891 -186.14355469 77.4375 C-183.67594373 75.44111032 -181.28634749 73.35384732 -178.87841797 71.28613281 C-171.7905005 65.38257174 -164.26260753 60.23410795 -156.56591797 55.16113281 C-155.47730469 54.43772705 -155.47730469 54.43772705 -154.36669922 53.69970703 C-129.69332756 37.38535504 -91.00082017 12.16113281 -60.56591797 12.16113281 C-60.23591797 11.50113281 -59.90591797 10.84113281 -59.56591797 10.16113281 C-57.51025391 9.61621094 -57.51025391 9.61621094 -54.80029297 9.19238281 C-50.62872825 8.50295701 -46.47830626 7.76915182 -42.33154297 6.94238281 C-31.62437929 4.83408511 -20.97581926 2.75316705 -10.12841797 1.52050781 C-6.4727295 1.0078198 -3.8373325 0.02543093 0 0 Z M228.12353516 146.25292969 C226.65409788 146.29396989 225.18469681 146.33632409 223.71533203 146.37988281 C222.93138062 146.40207886 222.1474292 146.4242749 221.33972168 146.44714355 C218.87113928 146.51728004 216.40261133 146.58915417 213.93408203 146.66113281 C211.43697809 146.73271198 208.93986432 146.80394034 206.44274902 146.87512207 C204.89692289 146.91932062 203.35110549 146.96382627 201.80529785 147.00866699 C196.53832467 147.16113281 196.53832467 147.16113281 195.43408203 147.16113281 C195.10408203 147.82113281 194.77408203 148.48113281 194.43408203 149.16113281 C193.77408203 149.16113281 193.11408203 149.16113281 192.43408203 149.16113281 C192.43408203 148.50113281 192.43408203 147.84113281 192.43408203 147.16113281 C189.16326849 147.13152651 185.89249042 147.11413475 182.62158203 147.09863281 C181.25743164 147.08606445 181.25743164 147.08606445 179.86572266 147.07324219 C178.95371094 147.07001953 178.04169922 147.06679687 177.10205078 147.06347656 C176.27987061 147.05823975 175.45769043 147.05300293 174.6105957 147.04760742 C171.91278981 147.14402428 169.30615462 147.38124674 166.62475586 147.66772461 C159.75820685 148.315345 152.91599245 148.24320585 146.02864075 148.17516708 C143.66618617 148.15285618 141.30381489 148.13896903 138.94128418 148.12747192 C132.2333658 148.09412223 125.5255888 148.05185756 118.81787109 147.98974609 C114.69441579 147.95215622 110.57109543 147.92910188 106.44749451 147.91543961 C104.88134453 147.90738728 103.31521285 147.89378105 101.74916077 147.8745079 C99.56909224 147.84810134 97.38968092 147.84014381 95.20947266 147.83642578 C93.97024048 147.82674774 92.7310083 147.8170697 91.45422363 147.80709839 C88.42584186 147.89444408 88.42584186 147.89444408 86.51062012 149.681427 C86.15536255 150.16972992 85.80010498 150.65803284 85.43408203 151.16113281 C86.42408203 151.49113281 87.41408203 151.82113281 88.43408203 152.16113281 C88.43408203 153.15113281 88.43408203 154.14113281 88.43408203 155.16113281 C90.15053798 157.28325409 90.15053798 157.28325409 92.43408203 159.41113281 C93.26681641 160.21808594 94.09955078 161.02503906 94.95751953 161.85644531 C96.95735716 163.71749294 98.97865694 165.51731324 101.05908203 167.28613281 C106.12154533 171.59745826 110.70490273 176.41395727 115.33105469 181.18310547 C115.96060059 181.82425293 116.59014648 182.46540039 117.23876953 183.12597656 C118.08930908 184.00177368 118.08930908 184.00177368 118.95703125 184.89526367 C120.36296945 186.37804604 120.36296945 186.37804604 122.43408203 186.16113281 C122.43408203 186.82113281 122.43408203 187.48113281 122.43408203 188.16113281 C123.09408203 188.16113281 123.75408203 188.16113281 124.43408203 188.16113281 C124.76408203 189.15113281 125.09408203 190.14113281 125.43408203 191.16113281 C126.89643265 192.64742424 126.89643265 192.64742424 128.68408203 194.03613281 C131.77897807 196.59939027 134.66392817 199.24124091 137.43408203 202.16113281 C138.57490234 203.21494141 138.57490234 203.21494141 139.73876953 204.29003906 C141.43408203 207.16113281 141.43408203 207.16113281 140.68017578 210.93457031 C140.10219256 212.4779723 139.49681025 214.01125774 138.87158203 215.53613281 C138.18807265 217.33645222 137.5058682 219.13726739 136.82470703 220.93847656 C136.24946289 222.42323486 136.24946289 222.42323486 135.66259766 223.93798828 C133.62014702 229.29657995 131.72699019 234.70829038 129.82107544 240.11654663 C129.10951641 242.13282198 128.39426662 244.14775369 127.67797852 246.16235352 C124.31466513 255.62650176 121.02752615 265.11515363 117.77124023 274.61669922 C114.84105235 283.14016346 111.86143041 291.64553501 108.86376953 300.14550781 C108.45173279 301.31419907 108.03969604 302.48289032 107.61517334 303.68699646 C105.54153185 309.5668911 103.46514723 315.44580038 101.38525391 321.32348633 C97.54553369 332.19337059 93.7706651 343.07717308 90.15673828 354.02441406 C87.48045363 362.12558571 84.66419061 370.11234497 81.49658203 378.03613281 C77.59113872 387.98712348 74.00955823 398.01681707 70.56518555 408.13574219 C68.10560744 415.3267267 65.45639083 422.39104897 62.52783203 429.40332031 C61.63131957 431.66381244 60.93835462 433.78875951 60.43408203 436.16113281 C55.01806886 425.62363287 49.97257561 414.92933137 45.01153564 404.17108154 C41.48631212 396.5293699 37.87949006 388.96185778 34.05517578 381.46582031 C31.61917391 376.49989842 29.39869975 371.44172603 27.18481445 366.37353516 C25.7737823 363.14697738 24.33784646 359.96866168 22.76220703 356.81738281 C21.43408203 354.16113281 21.43408203 354.16113281 20.43408203 351.16113281 C19.45537087 349.10917588 18.45274134 347.06855403 17.43408203 345.03613281 C16.62970703 343.42351562 16.62970703 343.42351562 15.80908203 341.77832031 C14.67287357 339.30088955 14.67287357 339.30088955 13.43408203 338.16113281 C12.80656341 336.64978515 12.20715503 335.1267217 11.62158203 333.59863281 C9.80213527 328.9667079 7.72406731 324.57753299 5.43408203 320.16113281 C4.77408203 320.49113281 4.11408203 320.82113281 3.43408203 321.16113281 C3.10408203 320.50113281 2.77408203 319.84113281 2.43408203 319.16113281 C3.09408203 319.16113281 3.75408203 319.16113281 4.43408203 319.16113281 C-1.35242926 302.11551568 -1.35242926 302.11551568 -13.56591797 290.16113281 C-18.49803724 289.10425011 -22.22018289 289.56590384 -26.81591797 291.59863281 C-34.89502792 299.12689436 -39.07626273 309.97882909 -43.75341797 319.78613281 C-44.50635416 321.3526471 -45.25985838 322.9188885 -46.01391602 324.48486328 C-47.86664014 328.33625067 -49.71172121 332.19124082 -51.55456543 336.04736328 C-53.02429159 339.11915305 -54.50215079 342.18698323 -55.97998047 345.25488281 C-59.59890728 352.78117187 -63.20662984 360.29976548 -66.57641602 367.94140625 C-68.26502828 371.7294306 -70.03823628 375.47676642 -71.81591797 379.22363281 C-72.2079541 380.05088867 -72.59999023 380.87814453 -73.00390625 381.73046875 C-75.73009122 387.459966 -78.53770223 393.14304717 -81.39819336 398.80639648 C-84.91243634 405.79250049 -88.26731815 412.85419876 -91.62207031 419.91796875 C-92.06115723 420.84125977 -92.50024414 421.76455078 -92.95263672 422.71582031 C-93.38108887 423.6178418 -93.80954102 424.51986328 -94.25097656 425.44921875 C-95.98511676 429.02568167 -97.81198711 432.55238401 -99.65893555 436.07177734 C-100.76501643 438.24016224 -100.76501643 438.24016224 -100.56591797 441.16113281 C-104.57494216 439.82479141 -105.37483692 437.66686249 -107.56591797 434.16113281 C-107.89591797 433.83113281 -108.22591797 433.50113281 -108.56591797 433.16113281 C-109.83504162 430.83638295 -111.08256237 428.50476136 -112.31591797 426.16113281 C-114.57852273 421.88066532 -116.85183415 417.61582269 -119.25341797 413.41113281 C-124.27426576 404.39686505 -127.86804767 394.88470064 -131.25341797 385.16113281 C-132.02437645 382.95147661 -132.79894999 380.74307742 -133.57763672 378.53613281 C-133.91239014 377.57449219 -134.24714355 376.61285156 -134.59204102 375.62207031 C-135.54235862 372.96939114 -135.54235862 372.96939114 -137.56591797 370.16113281 C-138.44982559 367.50940994 -138.97083639 365.10532901 -139.44091797 362.36035156 C-140.43170812 356.777983 -141.59021509 351.24101415 -142.77392578 345.69677734 C-146.32832136 328.98761195 -148.55086956 312.62924229 -149.86962891 295.61083984 C-149.94600586 294.65935059 -150.02238281 293.70786133 -150.10107422 292.72753906 C-150.19980835 291.44278687 -150.19980835 291.44278687 -150.30053711 290.13208008 C-150.36299612 288.161913 -150.36299612 288.161913 -151.56591797 287.16113281 C-153.07860194 287.07311936 -154.59538179 287.05420533 -156.1105957 287.06347656 C-157.07928085 287.06677979 -158.047966 287.07008301 -159.04600525 287.07348633 C-160.10316238 287.08178467 -161.16031952 287.09008301 -162.24951172 287.09863281 C-163.33418228 287.10241943 -164.41885284 287.10620605 -165.53639221 287.11010742 C-170.19235814 287.12647704 -174.8482375 287.15436559 -179.50415039 287.18164062 C-182.89843329 287.1998521 -186.29270126 287.21187649 -189.68701172 287.22363281 C-190.72595078 287.23193115 -191.76488983 287.24022949 -192.83531189 287.2487793 C-198.40364477 287.26722708 -203.81780794 287.03596896 -209.34437561 286.33496094 C-212.86052481 286.05983424 -216.09602421 286.58281719 -219.56591797 287.16113281 C-218.90591797 288.15113281 -218.24591797 289.14113281 -217.56591797 290.16113281 C-219.05091797 291.15113281 -219.05091797 291.15113281 -220.56591797 292.16113281 C-221.15327977 294.59297018 -221.15327977 294.59297018 -221.24560547 297.45410156 C-221.30973633 298.53481934 -221.37386719 299.61553711 -221.43994141 300.72900391 C-221.64490096 306.31296011 -221.71447873 311.88613894 -221.69091797 317.47363281 C-221.68680908 318.65119141 -221.6827002 319.82875 -221.6784668 321.04199219 C-222.68735824 335.21215749 -222.68735824 335.21215749 -219.02294922 348.03613281 C-218.30171875 348.59300781 -218.30171875 348.59300781 -217.56591797 349.16113281 C-218.22591797 349.16113281 -218.88591797 349.16113281 -219.56591797 349.16113281 C-219.68292877 354.66679887 -219.33245332 359.85413659 -218.37841797 365.28613281 C-218.17768677 366.44121338 -218.17768677 366.44121338 -217.97290039 367.61962891 C-210.11605689 411.50414867 -193.18125322 450.89830027 -164.30810547 485.05957031 C-162.56591797 487.16113281 -162.56591797 487.16113281 -160.56591797 490.16113281 C-159.90591797 490.16113281 -159.24591797 490.16113281 -158.56591797 490.16113281 C-158.30866943 490.74290283 -158.0514209 491.32467285 -157.78637695 491.92407227 C-156.45744067 494.35996807 -154.99477366 495.99091659 -153.03857422 497.95410156 C-151.98234863 499.01649048 -151.98234863 499.01649048 -150.90478516 500.1003418 C-149.7779834 501.21324585 -149.7779834 501.21324585 -148.62841797 502.34863281 C-147.85788086 503.11312744 -147.08734375 503.87762207 -146.29345703 504.6652832 C-140.6368811 510.22418908 -134.85661349 515.32644397 -128.56591797 520.16113281 C-127.16986328 521.31742188 -127.16986328 521.31742188 -125.74560547 522.49707031 C-112.54627474 533.19831799 -92.67289859 547.5510604 -75.56591797 550.16113281 C-73.00499156 546.18596346 -71.20409833 542.05419461 -69.50341797 537.66113281 C-69.24753906 537.01015625 -68.99166016 536.35917969 -68.72802734 535.68847656 C-68.00450923 533.84713226 -67.28510441 532.00417328 -66.56591797 530.16113281 C-66.24502197 529.36795654 -65.92412598 528.57478027 -65.59350586 527.75756836 C-64.58005825 525.19686145 -63.64407651 522.61933535 -62.72216797 520.02441406 C-60.68035445 514.385882 -58.4059163 508.86875057 -56.06591797 503.34863281 C-50.86225758 490.96333531 -45.86597203 478.49826198 -40.89884949 466.01687622 C-39.04333807 461.35520671 -37.17960993 456.69687829 -35.31201172 452.04003906 C-34.7734284 450.69645547 -34.23485409 449.35286827 -33.69628906 448.00927734 C-32.68555696 445.48785187 -31.67405674 442.96673924 -30.66210938 440.44580078 C-27.92928146 433.62275493 -25.25634336 426.78154354 -22.65942383 419.90551758 C-21.73304188 417.5805657 -20.72885143 415.37477815 -19.56591797 413.16113281 C-17.51730508 416.18527564 -16.20557266 419.07384987 -15.12841797 422.53613281 C-13.99878673 426.12611273 -12.49005665 429.07931585 -10.52735901 432.30606079 C-9.42834103 434.42658344 -8.81710825 436.47778964 -8.18286133 438.77978516 C-6.6783498 443.95084089 -4.77545199 448.86229429 -2.69482422 453.82519531 C-2.33122299 454.70211029 -1.96762177 455.57902527 -1.59300232 456.48251343 C-0.829723 458.32037079 -0.0640754 460.15724626 0.70385742 461.99316406 C1.87055936 464.78368679 3.02885957 467.57758568 4.18603516 470.37207031 C4.93358889 472.16915053 5.68161965 473.9660324 6.43017578 475.76269531 C6.77197372 476.58685944 7.11377167 477.41102356 7.46592712 478.26016235 C9.59577419 483.34012467 11.94306775 488.24845808 14.43408203 493.16113281 C14.97899926 494.60328444 15.490552 496.05964467 15.93408203 497.53613281 C17.7257972 503.19677139 19.77582004 508.84460882 22.43408203 514.16113281 C22.99816149 515.46811998 23.55432449 516.77853123 24.10595703 518.09082031 C24.43829346 518.88101562 24.77062988 519.67121094 25.11303711 520.48535156 C25.46648193 521.32710937 25.81992676 522.16886719 26.18408203 523.03613281 C26.5446167 523.89078125 26.90515137 524.74542969 27.27661133 525.62597656 C28.86697825 529.40100729 30.45088811 533.17679628 31.96923828 536.98144531 C32.39076172 538.03074219 32.81228516 539.08003906 33.24658203 540.16113281 C33.60365234 541.06863281 33.96072266 541.97613281 34.32861328 542.91113281 C35.50366798 545.30276358 36.34169039 546.52360264 38.43408203 548.16113281 C40.97265719 548.63004645 40.97265719 548.63004645 43.86767578 548.58105469 C44.97892822 548.59696655 46.09018066 548.61287842 47.23510742 548.62927246 C49.03516235 548.62957458 49.03516235 548.62957458 50.87158203 548.62988281 C52.71901001 548.6413031 52.71901001 548.6413031 54.60375977 548.6529541 C57.87753473 548.66653866 61.15090233 548.66435446 64.42468262 548.65856934 C66.43235234 548.66113061 68.43925468 548.67927107 70.44677734 548.703125 C74.29708224 548.74581131 78.14606681 548.75500875 81.99658203 548.75488281 C83.19661865 548.77127808 84.39665527 548.78767334 85.63305664 548.80456543 C86.74430908 548.79526001 87.85556152 548.78595459 89.00048828 548.77636719 C89.97961182 548.77842163 90.95873535 548.78047607 91.9675293 548.78259277 C94.62948133 548.38257485 94.62948133 548.38257485 96.14868164 545.93518066 C98.05378209 541.82374593 99.64379737 537.64830766 101.1706543 533.38452148 C101.50182755 532.46132614 101.83300079 531.5381308 102.17420959 530.58695984 C102.70696754 529.09806999 102.70696754 529.09806999 103.25048828 527.57910156 C104.02323165 525.42609131 104.79601969 523.27309708 105.56884766 521.12011719 C106.77140781 517.76675458 107.97345534 514.4132102 109.17456055 511.05932617 C113.75998694 498.25982214 118.41574191 485.49326197 123.21961975 472.77406311 C125.8661432 465.74168909 128.38437204 458.67276448 130.84092712 451.5721283 C132.96315583 445.45576828 135.17827705 439.37785318 137.43408203 433.30957031 C137.76408203 432.4194928 138.09408203 431.52941528 138.43408203 430.61236572 C139.78007055 426.98339265 141.12727879 423.35493979 142.48535156 419.73046875 C143.4959616 417.03016401 144.49708245 414.32650356 145.49658203 411.62207031 C145.80789063 410.79830902 146.11919922 409.97454773 146.43994141 409.12582397 C147.16287515 407.1580153 147.80658267 405.16141997 148.43408203 403.16113281 C148.10408203 402.50113281 147.77408203 401.84113281 147.43408203 401.16113281 C148.09408203 400.83113281 148.75408203 400.50113281 149.43408203 400.16113281 C150.30712081 398.39093704 150.30712081 398.39093704 151.03466797 396.20239258 C151.4858902 394.93825279 151.4858902 394.93825279 151.94622803 393.64857483 C152.2670636 392.72588303 152.58789917 391.80319122 152.91845703 390.85253906 C153.25653381 389.89782211 153.5946106 388.94310516 153.94293213 387.9594574 C155.03014002 384.88320795 156.10702471 381.80344887 157.18408203 378.72363281 C157.89438747 376.71234177 158.60531809 374.70127141 159.31689453 372.69042969 C162.7957639 362.83380926 166.18836519 352.95412843 169.46452332 343.02838135 C171.1519869 337.9405182 172.97261957 332.93608892 174.99658203 327.97363281 C177.37864343 322.11410952 179.4520055 316.18917923 181.43173218 310.18113708 C183.65816294 303.43936074 186.01912562 296.74770512 188.40112305 290.05957031 C189.13339894 288.00294457 189.86297776 285.94537538 190.59228516 283.88769531 C194.25741684 273.57094212 194.25741684 273.57094212 195.58569336 270.48974609 C196.66229563 267.94780177 196.66229563 267.94780177 196.43408203 264.16113281 C200.0811746 265.37683034 201.85842845 267.45373087 204.43408203 270.16113281 C205.5791004 271.32110324 206.72648737 272.47873851 207.87573242 273.63452148 C208.50310806 274.26835251 209.1304837 274.90218353 209.77687073 275.55522156 C212.6020784 278.40722108 215.43262124 281.25390067 218.26342773 284.1003418 C219.75577294 285.60280238 221.24632638 287.10704473 222.73510742 288.61303711 C224.89178731 290.79394668 227.05483671 292.96835844 229.21923828 295.14160156 C229.8828688 295.81555466 230.54649933 296.48950775 231.23023987 297.18388367 C232.16657509 298.12044548 232.16657509 298.12044548 233.12182617 299.07592773 C233.66633926 299.62488205 234.21085236 300.17383636 234.77186584 300.73942566 C236.57813011 302.28433832 238.23300521 303.26898464 240.43408203 304.16113281 C242.63155334 303.86308274 242.63155334 303.86308274 244.43408203 303.16113281 C244.55351772 294.22999721 244.42326384 285.33468648 244.07617188 276.40991211 C243.18419122 253.26899125 243.33923083 230.1254565 243.42735291 206.97097778 C243.43083529 206.03436658 243.43408203 205.09775049 243.43408203 204.16113281 C243.4445749 202.42032825 243.45517624 200.67952435 243.46582031 198.9387207 C243.50186057 192.71575992 243.52492975 186.49280965 243.54394531 180.26977539 C243.55290405 177.574091 243.56685024 174.8784994 243.58496094 172.18286133 C243.60912671 168.31230976 243.62054526 164.4419021 243.62939453 160.57128906 C243.6397171 159.35981705 243.65003967 158.14834503 243.66067505 156.90016174 C243.66082611 155.78237839 243.66097717 154.66459503 243.66113281 153.51293945 C243.66557404 152.5255629 243.67001526 151.53818634 243.67459106 150.52088928 C243.66582425 147.97169851 243.66582425 147.97169851 241.43408203 146.16113281 C239.51945749 145.90886012 239.51945749 145.90886012 237.35400391 146.02246094 C236.54697021 146.04058838 235.73993652 146.05871582 234.90844727 146.07739258 C232.64678706 146.15393421 230.38593206 146.20480465 228.12353516 146.25292969 Z M-220.56591797 289.16113281 C-219.56591797 291.16113281 -219.56591797 291.16113281 -219.56591797 291.16113281 Z M-138.56591797 367.16113281 C-137.56591797 369.16113281 -137.56591797 369.16113281 -137.56591797 369.16113281 Z " fill="#1B91FE" transform="translate(315.56591796875,5.8388671875)"/>
<path d="M0 0 C0 0.33 0 0.66 0 1 C-9.32871359 2.26777535 -18.69584266 2.33699404 -28.09350586 2.55224609 C-30.29812279 2.60407468 -32.5025568 2.66122323 -34.70703125 2.71875 C-36.0113208 2.74904297 -37.31561035 2.77933594 -38.65942383 2.81054688 C-41.32711003 2.96183859 -43.45778179 3.29177736 -46 4 C-46.99 4 -47.98 4 -49 4 C-49 3.34 -49 2.68 -49 2 C-51.70842066 2.14432627 -54.4167266 2.29045436 -57.125 2.4375 C-57.86621094 2.47681641 -58.60742188 2.51613281 -59.37109375 2.55664062 C-62.91182395 2.75004185 -66.44707807 2.95410571 -69.98123169 3.24745178 C-78.59349046 3.95118483 -87.12098283 4.12324775 -95.75319672 4.07516479 C-98.10722246 4.06216678 -100.46119063 4.05582918 -102.81524658 4.05102539 C-107.79352423 4.03973525 -112.7717526 4.02042629 -117.75 4 C-123.56608973 3.9763551 -129.38215396 3.95604313 -135.19828033 3.94406128 C-137.51721271 3.93758287 -139.83606303 3.92508941 -142.15496826 3.91235352 C-143.56522551 3.90872405 -144.97548352 3.90537194 -146.38574219 3.90234375 C-147.61814636 3.89710693 -148.85055054 3.89187012 -150.12030029 3.88647461 C-152.942775 3.79987368 -152.942775 3.79987368 -155 5 C-154.01 5.99 -153.02 6.98 -152 8 C-152.99 8.33 -153.98 8.66 -155 9 C-155.99 7.35 -156.98 5.7 -158 4 C-157.34 3.01 -156.68 2.02 -156 1 C-153.70040894 0.64596558 -153.70040894 0.64596558 -150.76513672 0.67529297 C-149.09789551 0.68041397 -149.09789551 0.68041397 -147.39697266 0.68563843 C-146.17026855 0.70429962 -144.94356445 0.72296082 -143.6796875 0.7421875 C-141.69910907 0.75290512 -139.71853052 0.76360901 -137.73794937 0.77381325 C-135.59961099 0.78744237 -133.46144223 0.80817731 -131.32318115 0.83081055 C-124.52502795 0.90167999 -117.72664603 0.92629021 -110.92819595 0.95186615 C-109.34189782 0.95794887 -107.7556016 0.96455166 -106.16930771 0.9716568 C-87.40111049 1.05392156 -68.64042961 0.79848949 -49.875 0.5 C-48.32859308 0.47555622 -46.78218602 0.45112172 -45.23577881 0.42669678 C-44.48284357 0.41478239 -43.72990833 0.402868 -42.95415688 0.39059258 C-40.02281663 0.34422781 -37.09147449 0.29798582 -34.16012955 0.25191879 C-32.76934702 0.23000863 -31.37856683 0.20794979 -29.98778915 0.1857338 C-19.99075819 0.0268544 -9.99822363 -0.06857231 0 0 Z " fill="#5FBDFC" transform="translate(557,151)"/>
<path d="M0 0 C0.33 0 0.66 0 1 0 C1 23.1 1 46.2 1 70 C0.67 70 0.34 70 0 70 C-1.05619003 65.71702469 -1.11702092 61.57014354 -1.0625 57.1875 C-1.05798828 56.49462891 -1.05347656 55.80175781 -1.04882812 55.08789062 C-1.03713156 53.39188932 -1.01919924 51.69593297 -1 50 C-1.66 50 -2.32 50 -3 50 C-3.02509621 45.68074908 -3.04304322 41.36153906 -3.05493164 37.04223633 C-3.05989824 35.57901264 -3.06667378 34.11579375 -3.07543945 32.65258789 C-3.12950977 23.381118 -2.88831598 14.24068949 -2 5 C-1.34 5 -0.68 5 0 5 C0 3.35 0 1.7 0 0 Z " fill="#3497F9" transform="translate(10,310)"/>
<path d="M0 0 C2.7844513 -0.25640999 5.33980473 -0.31906455 8.12158203 -0.2487793 C9.38023071 -0.23480606 9.38023071 -0.23480606 10.66430664 -0.22055054 C13.44587974 -0.18609551 16.22659644 -0.13021665 19.0078125 -0.07421875 C20.9330766 -0.04619514 22.85836051 -0.01950373 24.78366089 0.00590515 C29.85727092 0.07645797 34.93040934 0.16516083 40.00366211 0.25756836 C45.17806001 0.34863129 50.35269828 0.42263427 55.52734375 0.49804688 C65.68520529 0.64861054 75.84265039 0.81833786 86 1 C86 1.33 86 1.66 86 2 C77.51568089 3.01103704 69.09280212 3.12219535 60.56399345 3.07516479 C58.1976062 3.06223507 55.83127588 3.05584534 53.46485901 3.05102539 C48.45571332 3.03969626 43.44661584 3.02040373 38.4375 3 C32.59784868 2.97637625 26.75822299 2.95604036 20.91853523 2.94406128 C18.58631471 2.93757707 16.25417542 2.92507982 13.92198181 2.91235352 C12.50194367 2.90872353 11.08190479 2.90537149 9.66186523 2.90234375 C7.79968605 2.89448853 7.79968605 2.89448853 5.89988708 2.88647461 C3.06022803 2.79826812 3.06022803 2.79826812 1 4 C1.99 4.99 2.98 5.98 4 7 C3.01 7.33 2.02 7.66 1 8 C0.01 6.35 -0.98 4.7 -2 3 C-1.34 2.01 -0.68 1.02 0 0 Z " fill="#7FCCFD" transform="translate(401,152)"/>
<path d="M0 0 C1.18746826 0.06566162 2.37493652 0.13132324 3.59838867 0.19897461 C18.83190155 1.00262325 34.06123323 1.31304674 49.3125 1.5625 C51.81836439 1.60583047 54.32422383 1.64944857 56.83007812 1.69335938 C62.88666581 1.79887787 68.94330426 1.9008877 75 2 C75 2.33 75 2.66 75 3 C74.08476562 3.06058594 73.16953125 3.12117187 72.2265625 3.18359375 C71.03804688 3.26738281 69.84953125 3.35117187 68.625 3.4375 C66.84996094 3.55931641 66.84996094 3.55931641 65.0390625 3.68359375 C62.08481099 3.81084936 62.08481099 3.81084936 60 5 C56.14616793 5.12246708 52.2892297 4.89982725 48.4375 4.75 C47.26340576 4.70625244 46.08931152 4.66250488 44.87963867 4.61743164 C29.87550156 3.97510949 14.93955894 2.49073042 0 1 C0 0.67 0 0.34 0 0 Z " fill="#66B7F9" transform="translate(303,682)"/>
<path d="M0 0 C3.9900628 0.56569888 6.55285802 1.75764919 9.87109375 4.01953125 C10.77537109 4.62990234 11.67964844 5.24027344 12.61132812 5.86914062 C13.54396484 6.51044922 14.47660156 7.15175781 15.4375 7.8125 C16.36626953 8.44220703 17.29503906 9.07191406 18.25195312 9.72070312 C20.04507909 10.93696579 21.83479395 12.1582768 23.62060547 13.38525391 C25.59006376 14.72180194 27.5816973 15.99775881 29.59765625 17.26171875 C32 19 32 19 33 22 C28.42162518 20.38565975 24.5208013 18.01203124 20.4375 15.4375 C19.73947266 14.99929932 19.04144531 14.56109863 18.32226562 14.10961914 C11.9782509 10.07653489 5.78514731 5.80999938 0 1 C0 0.67 0 0.34 0 0 Z " fill="#3599FB" transform="translate(143,616)"/>
<path d="M0 0 C6.47831189 1.62573606 12.65775391 3.51845224 18.80859375 6.1328125 C20.86030144 6.94471822 22.84934479 7.51989929 25 8 C25 8.66 25 9.32 25 10 C26.65 10.66 28.3 11.32 30 12 C26.34578723 13.82710639 22.32462903 11.43888129 18.609375 10.25 C5.63513514 5.75675676 5.63513514 5.75675676 0 2 C0 1.34 0 0.68 0 0 Z " fill="#379CFC" transform="translate(472,28)"/>
<path d="M0 0 C1.91578776 2.87368163 2.83619293 5.14892261 3.91015625 8.40234375 C4.26013672 9.45744141 4.61011719 10.51253906 4.97070312 11.59960938 C5.51114258 13.25186523 5.51114258 13.25186523 6.0625 14.9375 C6.42666016 16.03513672 6.79082031 17.13277344 7.16601562 18.26367188 C10.08371825 27.10307041 10.08371825 27.10307041 11 31 C10.01 31 9.02 31 8 31 C-0.47576967 9.27750855 -0.47576967 9.27750855 0 0 Z " fill="#40A0FB" transform="translate(103,400)"/>
<path d="M0 0 C0.99 0.33 1.98 0.66 3 1 C4.42456139 4.3823385 3.95853354 7.83402363 3.8125 11.4375 C3.58488935 21.12215634 5.18843156 30.60023967 6.6652832 40.14624023 C6.84921631 41.36126221 7.03314941 42.57628418 7.22265625 43.828125 C7.39547119 44.9202832 7.56828613 46.01244141 7.74633789 47.13769531 C7.98114549 49.78724713 7.84709355 51.50735088 7 54 C2.82570104 36.18965777 1.41797453 18.20113935 0 0 Z " fill="#8ED1FD" transform="translate(164,293)"/>
<path d="M0 0 C1.79994406 2.69991609 2.38188443 3.98501209 3.03515625 7.01953125 C3.20466797 7.79490234 3.37417969 8.57027344 3.54882812 9.36914062 C3.71833984 10.17544922 3.88785156 10.98175781 4.0625 11.8125 C4.32256836 13.00456055 4.32256836 13.00456055 4.58789062 14.22070312 C5.50427535 18.46556572 6.3295896 22.70799112 7 27 C6.01 26.67 5.02 26.34 4 26 C3.09153585 23.67263031 2.41279206 21.53348172 1.8125 19.125 C1.6381543 18.45331787 1.46380859 17.78163574 1.28417969 17.08959961 C-0.10792713 11.35839665 -0.44086202 5.89040639 0 0 Z " fill="#399BFB" transform="translate(173,347)"/>
<path d="M0 0 C3.17176751 1.47676331 5.91052578 3.27332345 8.75 5.3125 C11.98472812 7.61136465 15.23767167 9.80764481 18.625 11.875 C19.73875 12.57625 20.8525 13.2775 22 14 C22 14.33 22 14.66 22 15 C17.24454495 15.51575707 14.86738358 13.98119199 11 11.3125 C9.989375 10.62800781 8.97875 9.94351563 7.9375 9.23828125 C5.01161244 7.00884831 2.46361135 4.73080449 0 2 C0 1.34 0 0.68 0 0 Z " fill="#3DA0FC" transform="translate(188,527)"/>
<path d="M0 0 C0.33 0 0.66 0 1 0 C1 3.3 1 6.6 1 10 C0.34 10 -0.32 10 -1 10 C-1.99 13.96 -2.98 17.92 -4 22 C-4.99 22 -5.98 22 -7 22 C-6.23754579 17.18399177 -4.58720144 12.75384298 -2.9375 8.1875 C-2.65583984 7.39923828 -2.37417969 6.61097656 -2.08398438 5.79882812 C-1.39241462 3.86477711 -0.69662722 1.93223512 0 0 Z " fill="#3DA0FC" transform="translate(507,285)"/>
<path d="M0 0 C1.16514544 3.3907421 0.84338928 5.23119977 -0.43359375 8.546875 C-0.75263672 9.39121094 -1.07167969 10.23554688 -1.40039062 11.10546875 C-1.91375977 12.41451172 -1.91375977 12.41451172 -2.4375 13.75 C-2.94506836 15.08224609 -2.94506836 15.08224609 -3.46289062 16.44140625 C-4.29890894 18.63153873 -5.14485791 20.81727914 -6 23 C-6.66 21.68 -7.32 20.36 -8 19 C-7.34 18.67 -6.68 18.34 -6 18 C-5.76441369 16.1153095 -5.53511133 14.22953686 -5.34375 12.33984375 C-4.76914142 8.42858765 -3.64531298 4.59764608 -2 1 C-1.34 0.67 -0.68 0.34 0 0 Z " fill="#40A1FB" transform="translate(391,397)"/>
<path d="M0 0 C0.99 0.66 1.98 1.32 3 2 C3.66 2.33 4.32 2.66 5 3 C4.95875 3.78375 4.9175 4.5675 4.875 5.375 C4.71271266 8.16116119 4.71271266 8.16116119 7 10 C6.34 10.66 5.68 11.32 5 12 C4.67 11.34 4.34 10.68 4 10 C0.37114676 9.84850702 0.37114676 9.84850702 -3 11 C-2.44894091 7.0507432 -1.61064629 3.65079826 0 0 Z " fill="#59B8FB" transform="translate(295,418)"/>
<path d="M0 0 C0.99 0.33 1.98 0.66 3 1 C4.23273385 3.65037777 5.27355928 6.19540799 6.25 8.9375 C6.53101563 9.67935547 6.81203125 10.42121094 7.1015625 11.18554688 C7.80278067 13.10001134 8.40860484 15.04881244 9 17 C8.67 17.66 8.34 18.32 8 19 C4.79789297 16.37070391 3.74614015 13.3230404 2.3125 9.5 C1.87550781 8.3553125 1.43851563 7.210625 0.98828125 6.03125 C0 3 0 3 0 0 Z " fill="#3699FA" transform="translate(664,215)"/>
<path d="M0 0 C0.66 0 1.32 0 2 0 C0.48526781 7.98676972 -2.16802552 15.40122878 -5 23 C-6.05078125 21.12109375 -6.05078125 21.12109375 -7 19 C-6.1875 17.0625 -6.1875 17.0625 -5 15 C-4.835 14.154375 -4.67 13.30875 -4.5 12.4375 C-4 10 -4 10 -2 7 C-1.29187186 4.67891331 -0.61975848 2.34622853 0 0 Z " fill="#3FA5FC" transform="translate(449,230)"/>
<path d="M0 0 C2.79829275 2.44542886 4.15306136 5.0112156 5.6875 8.375 C6.12449219 9.31085938 6.56148437 10.24671875 7.01171875 11.2109375 C8.00747184 14.02108654 8.19862672 16.0474406 8 19 C5.37649784 15.85179741 3.69509212 12.48754547 1.96484375 8.8046875 C1.01891485 6.82545172 1.01891485 6.82545172 -1 5 C-0.625 2.375 -0.625 2.375 0 0 Z " fill="#2B9BFC" transform="translate(193,409)"/>
<path d="M0 0 C2.14272786 3.2140918 3.62118285 6.52601133 5.125 10.0625 C5.40214844 10.69994141 5.67929687 11.33738281 5.96484375 11.99414062 C8 16.75119304 8 16.75119304 8 19 C7.01 19 6.02 19 5 19 C2.12059087 12.5849443 0.4535179 7.02952752 0 0 Z " fill="#45A4FC" transform="translate(319,474)"/>
<path d="M0 0 C0.33 0 0.66 0 1 0 C1.6319296 6.00333124 -0.62455877 10.63404795 -3 16 C-3.66 16 -4.32 16 -5 16 C-5.33 16.99 -5.66 17.98 -6 19 C-6.33 18.34 -6.66 17.68 -7 17 C-6.114476 14.44312277 -5.1719636 11.98944678 -4.125 9.5 C-3.84269531 8.81035156 -3.56039062 8.12070313 -3.26953125 7.41015625 C-2.24006339 4.90723203 -1.21074517 2.42149034 0 0 Z " fill="#3C9EF8" transform="translate(36,207)"/>
<path d="M0 0 C2.81158409 2.49824489 4.44837831 5.278476 6.25 8.5625 C6.79140625 9.53316406 7.3328125 10.50382813 7.890625 11.50390625 C8.25671875 12.32761719 8.6228125 13.15132812 9 14 C8.67 14.66 8.34 15.32 8 16 C3.55993084 12.38216587 1.01511972 7.28163799 -1 2 C-0.67 1.34 -0.34 0.68 0 0 Z " fill="#3EA0FA" transform="translate(645,174)"/>
<path d="M0 0 C1.97303774 1.97303774 2.77145934 3.54291869 4 6 C4.66 6.66 5.32 7.32 6 8 C6.88671875 10.27734375 6.88671875 10.27734375 7.6875 12.9375 C7.95949219 13.81277344 8.23148438 14.68804687 8.51171875 15.58984375 C9 18 9 18 8 21 C6.82625827 18.56568361 5.66084237 16.12795818 4.5 13.6875 C4.16613281 12.99720703 3.83226562 12.30691406 3.48828125 11.59570312 C1 6.33984375 1 6.33984375 1 3 C0.34 2.67 -0.32 2.34 -1 2 C-0.67 1.34 -0.34 0.68 0 0 Z " fill="#4BA6FA" transform="translate(32,471)"/>
<path d="M0 0 C1.59349613 5.58322703 0.23186883 10.71399488 -2 16 C-4.07421875 17.67578125 -4.07421875 17.67578125 -6 19 C-4.12275039 12.62267685 -2.14328358 6.29304541 0 0 Z " fill="#4CA9FC" transform="translate(453,436)"/>
<path d="M0 0 C3.90536684 1.53425126 6.16770771 3.18272439 8 7 C7.10599696 11.18109957 5.63522728 15.05658653 4 19 C3.34 18.01 2.68 17.02 2 16 C2.875 12.3125 2.875 12.3125 4 9 C4.66 9 5.32 9 6 9 C4.16172132 5.84866512 2.24027294 2.88035092 0 0 Z " fill="#5EB5FC" transform="translate(450,206)"/>
<path d="M0 0 C3.95431169 4.39367965 6.86631108 9.49527743 9 15 C8.67 15.66 8.34 16.32 8 17 C7.27683594 15.84371094 7.27683594 15.84371094 6.5390625 14.6640625 C5.90742187 13.66117188 5.27578125 12.65828125 4.625 11.625 C3.99851562 10.62726562 3.37203125 9.62953125 2.7265625 8.6015625 C1.10730288 5.9751981 1.10730288 5.9751981 -1 4 C-0.625 1.875 -0.625 1.875 0 0 Z " fill="#3BA4FB" transform="translate(57,518)"/>
<path d="M0 0 C2.44814179 3.0296652 4.09452853 6.07549599 5.6875 9.625 C6.12449219 10.58664062 6.56148438 11.54828125 7.01171875 12.5390625 C8 15 8 15 8 17 C5 16 5 16 3.8671875 14.43359375 C1.4339272 9.53833385 0.38980663 5.45729286 0 0 Z " fill="#44A5FD" transform="translate(114,431)"/>
<path d="M0 0 C3.69876091 1.37287342 6.9514476 3.06355453 10.3125 5.125 C11.19550781 5.66382813 12.07851563 6.20265625 12.98828125 6.7578125 C13.65214844 7.16773438 14.31601562 7.57765625 15 8 C13.1875 8.625 13.1875 8.625 11 9 C10.01 8.34 9.02 7.68 8 7 C8 6.34 8 5.68 8 5 C7.01 5.33 6.02 5.66 5 6 C1.8125 4.0625 1.8125 4.0625 -1 2 C-0.67 1.34 -0.34 0.68 0 0 Z " fill="#3FA0FC" transform="translate(518,49)"/>
<path d="M0 0 C1.61013585 0.73709784 3.21292391 1.49025857 4.8125 2.25 C5.70582031 2.66765625 6.59914062 3.0853125 7.51953125 3.515625 C10.10928331 5.06539789 11.38180834 6.48400766 13 9 C12.01 9.33 11.02 9.66 10 10 C9.67 9.34 9.34 8.68 9 8 C7.17809731 6.90287919 5.31760845 5.86908033 3.4375 4.875 C2.42558594 4.33617187 1.41367188 3.79734375 0.37109375 3.2421875 C-0.80259766 2.62730469 -0.80259766 2.62730469 -2 2 C-1.34 1.34 -0.68 0.68 0 0 Z " fill="#429FFB" transform="translate(180,638)"/>
<path d="M0 0 C6.93 0.495 6.93 0.495 14 1 C14 1.33 14 1.66 14 2 C13.22914063 2.06058594 12.45828125 2.12117187 11.6640625 2.18359375 C10.66117187 2.26738281 9.65828125 2.35117188 8.625 2.4375 C7.12839844 2.55931641 7.12839844 2.55931641 5.6015625 2.68359375 C3.02072387 2.84965626 3.02072387 2.84965626 1 4 C1.99 4.99 2.98 5.98 4 7 C3.01 7.33 2.02 7.66 1 8 C0.01 6.35 -0.98 4.7 -2 3 C-1.34 2.01 -0.68 1.02 0 0 Z " fill="#53ABFD" transform="translate(401,152)"/>
<path d="M0 0 C9.47058824 5.41176471 9.47058824 5.41176471 11 10 C7.6989701 9.40114059 5.78574977 8.30314403 3.25 6.125 C2.63640625 5.61195312 2.0228125 5.09890625 1.390625 4.5703125 C0 3 0 3 0 0 Z " fill="#3C9EFC" transform="translate(568,83)"/>
<path d="M0 0 C0.66 0.33 1.32 0.66 2 1 C-1.23734737 6.14166935 -2.88093923 8.5678794 -9 10 C-10.34721283 10.63815344 -11.68747118 11.29325371 -13 12 C-9.48451346 6.95604105 -4.88263123 3.62024153 0 0 Z " fill="#4CABFA" transform="translate(143,72)"/>
<path d="M0 0 C6.90546218 6.54201681 6.90546218 6.54201681 7.125 12.25 C7.08375 13.1575 7.0425 14.065 7 15 C3.49221789 10.79066147 0 5.5744558 0 0 Z " fill="#51AAFB" transform="translate(347,381)"/>
<path d="M0 0 C0.33 0.66 0.66 1.32 1 2 C0.26821134 4.07196631 -0.55899003 6.1108552 -1.4375 8.125 C-1.91058594 9.22070312 -2.38367188 10.31640625 -2.87109375 11.4453125 C-3.24363281 12.28835938 -3.61617187 13.13140625 -4 14 C-4.9889491 11.03315271 -5.07889872 9.48851928 -4.8125 6.4375 C-4.75707031 5.65246094 -4.70164062 4.86742187 -4.64453125 4.05859375 C-4 2 -4 2 -1.94921875 0.72265625 C-1.30597656 0.48417969 -0.66273438 0.24570312 0 0 Z " fill="#3DA4FB" transform="translate(664,477)"/>
<path d="M0 0 C1.45606519 4.52092968 0.27032841 7.51648796 -1 12 C-1.66 12 -2.32 12 -3 12 C-3.33 13.32 -3.66 14.64 -4 16 C-5.35304209 11.94087374 -4.15216503 10.22850409 -2.5625 6.3125 C-2.08941406 5.13300781 -1.61632812 3.95351563 -1.12890625 2.73828125 C-0.75636719 1.83464844 -0.38382812 0.93101562 0 0 Z " fill="#51AFFC" transform="translate(463,409)"/>
<path d="M0 0 C1.36024774 4.69996047 0.53466611 8.39600166 -1 13 C-1.66 13 -2.32 13 -3 13 C-3.33 14.65 -3.66 16.3 -4 18 C-5.35814777 13.9255567 -3.94745762 11.18531884 -2.5625 7.3125 C-2.31951172 6.61060547 -2.07652344 5.90871094 -1.82617188 5.18554688 C-1.2255056 3.45421468 -0.61380281 1.72671863 0 0 Z " fill="#59ACF9" transform="translate(27,229)"/>
<path d="M0 0 C2.24956302 2.24956302 3.00510965 4.06323263 4.1875 7 C4.55230469 7.886875 4.91710937 8.77375 5.29296875 9.6875 C6 12 6 12 5 14 C1.71071186 11.80714124 1.40536468 11.15238311 0.25 7.5625 C-0.01296875 6.78003906 -0.2759375 5.99757813 -0.546875 5.19140625 C-1 3 -1 3 0 0 Z " fill="#45A4FB" transform="translate(309,450)"/>
<path d="M0 0 C0.33 0 0.66 0 1 0 C0.85780436 2.20857055 0.71108153 4.41684987 0.5625 6.625 C0.48128906 7.85476563 0.40007813 9.08453125 0.31640625 10.3515625 C0.03336056 13.61532388 -0.41038953 16.77943859 -1 20 C-1.33 20 -1.66 20 -2 20 C-2.05379226 17.04142591 -2.09357093 14.08382279 -2.125 11.125 C-2.14175781 10.28324219 -2.15851562 9.44148438 -2.17578125 8.57421875 C-2.18222656 7.76855469 -2.18867187 6.96289062 -2.1953125 6.1328125 C-2.21102295 5.01737061 -2.21102295 5.01737061 -2.22705078 3.87939453 C-2 2 -2 2 0 0 Z " fill="#5BB2FB" transform="translate(687,391)"/>
<path d="M0 0 C1.07174763 3.65188082 0.76411467 6.26432828 0 10 C-0.33 10 -0.66 10 -1 10 C-1.33 11.65 -1.66 13.3 -2 15 C-2.99 15.33 -3.98 15.66 -5 16 C-4.34309381 12.21760329 -3.279869 8.78158474 -1.9375 5.1875 C-1.57527344 4.21167969 -1.21304687 3.23585938 -0.83984375 2.23046875 C-0.42412109 1.12638672 -0.42412109 1.12638672 0 0 Z " fill="#56ADFA" transform="translate(483,353)"/>
<path d="M0 0 C3.06040053 4.59060079 4.15039689 8.42083266 3.625 13.9375 C3.41875 14.948125 3.2125 15.95875 3 17 C1.38903725 14.1186032 0.67838881 11.78109376 0.375 8.5 C0.30023437 7.7471875 0.22546875 6.994375 0.1484375 6.21875 C0.01002636 4.14986768 0 2.0735071 0 0 Z " fill="#44A3F9" transform="translate(677,247)"/>
<path d="M0 0 C1.0326802 2.78823655 1.04509293 3.8677274 0.0625 6.75 C-0.288125 7.4925 -0.63875 8.235 -1 9 C-1.66 9 -2.32 9 -3 9 C-3.33 9.99 -3.66 10.98 -4 12 C-4.33 11.34 -4.66 10.68 -5 10 C-4.2578125 7.87109375 -4.2578125 7.87109375 -3.125 5.4375 C-2.75632812 4.63183594 -2.38765625 3.82617188 -2.0078125 2.99609375 C-1 1 -1 1 0 0 Z " fill="#399CF9" transform="translate(427,512)"/>
<path d="M0 0 C0.99 0 1.98 0 3 0 C1.68938409 4.23429756 0.05643741 8.07407404 -2 12 C-3.1171875 10.265625 -3.1171875 10.265625 -4 8 C-3.3203125 5.859375 -3.3203125 5.859375 -2.125 3.75 C-1.73570312 3.04359375 -1.34640625 2.3371875 -0.9453125 1.609375 C-0.63335937 1.07828125 -0.32140625 0.5471875 0 0 Z " fill="#42A3FC" transform="translate(226,415)"/>
<path d="M0 0 C1.75280733 0.42611351 3.50217435 0.86639267 5.25 1.3125 C6.22453125 1.55613281 7.1990625 1.79976562 8.203125 2.05078125 C10.98975665 2.99652356 12.77304368 4.10708713 15 6 C13.06115111 5.71743908 11.12394039 5.4236207 9.1875 5.125 C8.10855469 4.96257813 7.02960938 4.80015625 5.91796875 4.6328125 C3 4 3 4 0 2 C0 1.34 0 0.68 0 0 Z " fill="#54AAFB" transform="translate(472,28)"/>
<path d="M0 0 C0.99 0.33 1.98 0.66 3 1 C3 1.66 3 2.32 3 3 C3.66 3 4.32 3 5 3 C7.625 5.3125 7.625 5.3125 10 8 C10 8.99 10 9.98 10 11 C9.443125 10.3503125 9.443125 10.3503125 8.875 9.6875 C6.96187215 7.78866681 6.96187215 7.78866681 3.875 6.625 C1 5 1 5 0.125 2.3125 C0.08375 1.549375 0.0425 0.78625 0 0 Z " fill="#51B0FD" transform="translate(435,191)"/>
<path d="M0 0 C0.66 0.33 1.32 0.66 2 1 C1.745504 2.48206495 1.47088238 3.96068615 1.1875 5.4375 C1.03667969 6.26121094 0.88585937 7.08492188 0.73046875 7.93359375 C0.48941406 8.61550781 0.24835938 9.29742187 0 10 C-0.99 10.33 -1.98 10.66 -3 11 C-2.44894091 7.0507432 -1.61064629 3.65079826 0 0 Z " fill="#3198FC" transform="translate(412,334)"/>
<path d="M0 0 C0.33 0.66 0.66 1.32 1 2 C0.00390625 4.3828125 0.00390625 4.3828125 -1.4375 7.125 C-1.91058594 8.03507812 -2.38367188 8.94515625 -2.87109375 9.8828125 C-3.24363281 10.58148438 -3.61617188 11.28015625 -4 12 C-4.33 12 -4.66 12 -5 12 C-4.10164835 4.21428571 -4.10164835 4.21428571 -2 1 C-1.34 0.67 -0.68 0.34 0 0 Z " fill="#46A5FC" transform="translate(270,328)"/>
<path d="M0 0 C0.56640625 1.90234375 0.56640625 1.90234375 1 4 C-1.15353518 7.1669635 -4.6141423 8.41993307 -8 10 C-6.34908222 5.70761377 -3.26245434 3.1206085 0 0 Z " fill="#48A6FB" transform="translate(105,106)"/>
<path d="M0 0 C0.66 0.33 1.32 0.66 2 1 C-0.25740623 3.33524782 -2.2805761 5.18705073 -5 7 C-6.32 6.67 -7.64 6.34 -9 6 C-6.03 4.02 -3.06 2.04 0 0 Z " fill="#41A0FB" transform="translate(170,54)"/>
<path d="M0 0 C0 0.66 0 1.32 0 2 C-1.59766103 2.86627399 -3.20339944 3.71766465 -4.8125 4.5625 C-5.70582031 5.03816406 -6.59914063 5.51382813 -7.51953125 6.00390625 C-10 7 -10 7 -13 6 C-11.02 5.34 -9.04 4.68 -7 4 C-7 3.34 -7 2.68 -7 2 C-4.35261084 0.5393715 -3.10551666 0 0 0 Z " fill="#4BA5F9" transform="translate(500,650)"/>
<path d="M0 0 C0.99 0 1.98 0 3 0 C5.60250805 3.37362154 6.36265043 5.76907828 6 10 C3.38275905 7.63202009 1.67138271 5.10399646 0 2 C0 1.34 0 0.68 0 0 Z " fill="#42A5FB" transform="translate(201,428)"/>
<path d="M0 0 C0.33 0.66 0.66 1.32 1 2 C0.00390625 4.3828125 0.00390625 4.3828125 -1.4375 7.125 C-1.91058594 8.03507812 -2.38367188 8.94515625 -2.87109375 9.8828125 C-3.24363281 10.58148438 -3.61617187 11.28015625 -4 12 C-5.36119392 9.27761216 -4.76129827 7.90677521 -4 5 C-2.42105263 1.21052632 -2.42105263 1.21052632 0 0 Z " fill="#53AFFC" transform="translate(243,384)"/>
<path d="M0 0 C0.66 0.33 1.32 0.66 2 1 C-0.10515339 4.72450216 -1.24267224 6.6795921 -5.25 8.375 C-6.61125 8.684375 -6.61125 8.684375 -8 9 C-8 8.34 -8 7.68 -8 7 C-6.25 5.2734375 -6.25 5.2734375 -4 3.375 C-3.2575 2.74335937 -2.515 2.11171875 -1.75 1.4609375 C-1.1725 0.97882813 -0.595 0.49671875 0 0 Z " fill="#49A5FC" transform="translate(128,84)"/>
<path d="M0 0 C0.33 0.66 0.66 1.32 1 2 C0.00390625 4.6015625 0.00390625 4.6015625 -1.4375 7.625 C-1.91058594 8.62789063 -2.38367188 9.63078125 -2.87109375 10.6640625 C-3.24363281 11.43492187 -3.61617187 12.20578125 -4 13 C-4.33 13 -4.66 13 -5 13 C-5.1875 10.1875 -5.1875 10.1875 -5 7 C-3.5 5.3125 -3.5 5.3125 -2 4 C-2 3.01 -2 2.02 -2 1 C-1.34 0.67 -0.68 0.34 0 0 Z " fill="#4EA9FC" transform="translate(237,396)"/>
<path d="M0 0 C0.66 0 1.32 0 2 0 C2 0.66 2 1.32 2 2 C2.66 2 3.32 2 4 2 C5.625 5.3125 5.625 5.3125 7 9 C6.01 10.485 6.01 10.485 5 12 C3.35 8.04 1.7 4.08 0 0 Z " fill="#46A5FB" transform="translate(339,365)"/>
<path d="M0 0 C2.29109597 -0.08075665 4.58299267 -0.13907731 6.875 -0.1875 C8.78925781 -0.23970703 8.78925781 -0.23970703 10.7421875 -0.29296875 C11.81726563 -0.19628906 12.89234375 -0.09960938 14 0 C14.66 0.99 15.32 1.98 16 3 C15.30519531 2.83628906 14.61039062 2.67257812 13.89453125 2.50390625 C10.7647184 1.95904004 7.86201917 1.90261517 4.6875 1.9375 C3.08455078 1.95103516 3.08455078 1.95103516 1.44921875 1.96484375 C0.64097656 1.97644531 -0.16726563 1.98804688 -1 2 C-0.67 1.34 -0.34 0.68 0 0 Z " fill="#5EB5FC" transform="translate(291,295)"/>
<path d="M0 0 C0.33 0 0.66 0 1 0 C1 3.3 1 6.6 1 10 C-0.32 10.33 -1.64 10.66 -3 11 C-2.69078116 9.54096742 -2.37751201 8.08279278 -2.0625 6.625 C-1.88847656 5.81289063 -1.71445312 5.00078125 -1.53515625 4.1640625 C-1 2 -1 2 0 0 Z " fill="#4CA8FB" transform="translate(507,285)"/>
<path d="M0 0 C0.66 0.33 1.32 0.66 2 1 C0.68 4.63 -0.64 8.26 -2 12 C-3.37058195 7.88825414 -2.75640862 5.26339405 -2 1 C-1.34 0.67 -0.68 0.34 0 0 Z " fill="#2C94FA" transform="translate(514,269)"/>
<path d="M0 0 C0.33 0.66 0.66 1.32 1 2 C0.22265625 3.7265625 0.22265625 3.7265625 -0.9375 5.625 C-1.618125 6.73875 -2.29875 7.8525 -3 9 C-3.99 9 -4.98 9 -6 9 C-4.68775452 5.06326356 -3.08089673 2.77280706 0 0 Z " fill="#3B9AF9" transform="translate(62,162)"/>
<path d="M0 0 C0.33 1.32 0.66 2.64 1 4 C-1.31 5.98 -3.62 7.96 -6 10 C-6 6.41087588 -5.33563446 5.89142971 -3 3.3125 C-2.443125 2.68988281 -1.88625 2.06726563 -1.3125 1.42578125 C-0.879375 0.95527344 -0.44625 0.48476562 0 0 Z " fill="#409FFA" transform="translate(87,126)"/>
<path d="M0 0 C2.625 -0.1875 2.625 -0.1875 5 0 C2.81482901 2.40575607 0.74080329 3.79535581 -2.1875 5.1875 C-2.90292969 5.53167969 -3.61835937 5.87585938 -4.35546875 6.23046875 C-4.89816406 6.48441406 -5.44085937 6.73835937 -6 7 C-6 6.01 -6 5.02 -6 4 C-5.38125 3.896875 -4.7625 3.79375 -4.125 3.6875 C-1.63473516 3.12474627 -1.63473516 3.12474627 0 0 Z " fill="#429FFB" transform="translate(524,635)"/>
<path d="M0 0 C3.0916909 2.52956528 3.90931332 5.22454612 5 9 C4.34 9.66 3.68 10.32 3 11 C2.30034557 9.73581754 1.61565237 8.46334598 0.9375 7.1875 C0.55464844 6.47980469 0.17179687 5.77210938 -0.22265625 5.04296875 C-1 3 -1 3 0 0 Z " fill="#44A2FA" transform="translate(360,406)"/>
<path d="M0 0 C3 1 3 1 4.8125 4.375 C5.4003125 6.169375 5.4003125 6.169375 6 8 C5.01 9.485 5.01 9.485 4 11 C3.80664062 10.36191406 3.61328125 9.72382813 3.4140625 9.06640625 C3.15367187 8.24011719 2.89328125 7.41382813 2.625 6.5625 C2.36976563 5.73878906 2.11453125 4.91507812 1.8515625 4.06640625 C1.19117773 1.82201984 1.19117773 1.82201984 -1 1 C-0.67 0.67 -0.34 0.34 0 0 Z " fill="#43A5FA" transform="translate(354,396)"/>
<path d="M0 0 C2.0625 1.75 2.0625 1.75 4 4 C3.75 6.25 3.75 6.25 3 8 C2.67 7.01 2.34 6.02 2 5 C-0.16666667 5.83333333 -0.16666667 5.83333333 -1 8 C-1.33 6.68 -1.66 5.36 -2 4 C-1.34 4 -0.68 4 0 4 C0 2.68 0 1.36 0 0 Z " fill="#2A9AFB" transform="translate(320,321)"/>
<path d="M0 0 C0.99 0 1.98 0 3 0 C1.84414715 3.91211733 0.64465038 6.8745041 -2 10 C-2.6875 8.375 -2.6875 8.375 -3 6 C-1.5625 2.75 -1.5625 2.75 0 0 Z " fill="#3FA2FC" transform="translate(276,311)"/>
<path d="M0 0 C0.33 0 0.66 0 1 0 C1.33895656 1.72807318 1.67091525 3.45751974 2 5.1875 C2.185625 6.15042969 2.37125 7.11335938 2.5625 8.10546875 C2.96877612 10.7934206 3.07933572 13.28771019 3 16 C0.22278083 13.22278083 -0.18567376 10.82106929 -1 7 C-0.625 3.0625 -0.625 3.0625 0 0 Z " fill="#60B4FA" transform="translate(685,278)"/>
<path d="M0 0 C2.70931419 0.15481795 4.46584039 0.48172081 6.4453125 2.40234375 C7.67679642 3.89771708 8.8429837 5.4462924 10 7 C3.47692308 5.64615385 3.47692308 5.64615385 1.0625 2.375 C0.711875 1.59125 0.36125 0.8075 0 0 Z " fill="#49ABFC" transform="translate(548,68)"/>
<path d="M0 0 C-3.1254959 2.64465038 -6.08788267 3.84414715 -10 5 C-10.33 4.34 -10.66 3.68 -11 3 C-7.14243493 0.84694043 -4.44870215 -0.39253254 0 0 Z " fill="#339AFB" transform="translate(510,646)"/>
<path d="M0 0 C1.39195915 4.17587745 -0.17676781 6.13474776 -2 10 C-3.125 8.3125 -3.125 8.3125 -4 6 C-3.25 3.3125 -3.25 3.3125 -2 1 C-1.34 0.67 -0.68 0.34 0 0 Z " fill="#42A4FB" transform="translate(668,467)"/>
<path d="M0 0 C3.80666984 1.44390925 5.26602582 3.34952803 7 7 C6.67 7.66 6.34 8.32 6 9 C0.42857143 3.85714286 0.42857143 3.85714286 0 0 Z " fill="#42A0FC" transform="translate(128,461)"/>
<path d="M0 0 C0.33 0.66 0.66 1.32 1 2 C-1.4 8.4 -1.4 8.4 -4 11 C-4.17754126 7.09409237 -4.20731737 4.31097606 -2 1 C-1.34 0.67 -0.68 0.34 0 0 Z " fill="#4BA5FB" transform="translate(253,363)"/>
<path d="M0 0 C2.96404505 2.80804268 5.44499019 5.18315774 7 9 C1.21538462 5.67692308 1.21538462 5.67692308 0.125 2.25 C0.08375 1.5075 0.0425 0.765 0 0 Z " fill="#41A2FB" transform="translate(617,133)"/>
<path d="M0 0 C0.66 0.33 1.32 0.66 2 1 C-0.25 3.5625 -0.25 3.5625 -3 6 C-4.32 5.67 -5.64 5.34 -7 5 C-4.69 3.35 -2.38 1.7 0 0 Z " fill="#43A1FC" transform="translate(159,61)"/>
<path d="M0 0 C3 1 3 1 4.3125 3.3125 C5 6 5 6 4.125 8.3125 C3.568125 9.1478125 3.568125 9.1478125 3 10 C0 3.375 0 3.375 0 0 Z " fill="#59ADFC" transform="translate(186,396)"/>
<path d="M0 0 C1.13643966 3.40931897 0.86747764 4.00335456 -0.4375 7.1875 C-0.72496094 7.90292969 -1.01242187 8.61835938 -1.30859375 9.35546875 C-1.53675781 9.89816406 -1.76492188 10.44085938 -2 11 C-3.125 9.25 -3.125 9.25 -4 7 C-3.03284133 4.34031367 -1.58051758 2.37077638 0 0 Z " fill="#49A9FD" transform="translate(421,313)"/>
<path d="M0 0 C0 0.99 0 1.98 0 3 C-6.28571429 5.42857143 -6.28571429 5.42857143 -10 4 C-8.35 3.67 -6.7 3.34 -5 3 C-5 2.34 -5 1.68 -5 1 C-2 0 -2 0 0 0 Z " fill="#45A9FB" transform="translate(452,668)"/>
<path d="M0 0 C0.103125 0.639375 0.20625 1.27875 0.3125 1.9375 C0.539375 2.618125 0.76625 3.29875 1 4 C1.99 4.33 2.98 4.66 4 5 C4.33 6.98 4.66 8.96 5 11 C2.38114512 8.63055987 0.58133449 6.16266898 -1 3 C-0.67 2.01 -0.34 1.02 0 0 Z " fill="#4BA5F8" transform="translate(51,508)"/>
<path d="M0 0 C0.33 0 0.66 0 1 0 C1.36923077 6.52307692 1.36923077 6.52307692 -0.5 8.9375 C-0.995 9.288125 -1.49 9.63875 -2 10 C-3.39195915 5.82412255 -1.82323219 3.86525224 0 0 Z " fill="#4AA7FA" transform="translate(272,476)"/>
<path d="M0 0 C2.18975773 3.28463659 2.99806563 6.20696275 4 10 C2.68 9.34 1.36 8.68 0 8 C0 5.36 0 2.72 0 0 Z " fill="#46A9FC" transform="translate(315,464)"/>
<path d="M0 0 C3 1 3 1 4.1875 2.75 C5.10819096 5.29960574 5.14948718 7.30923081 5 10 C2.35534962 6.8745041 1.15585285 3.91211733 0 0 Z " fill="#47A4FC" transform="translate(196,418)"/>
<path d="M0 0 C0.99 0.33 1.98 0.66 3 1 C4.37001429 4.1967 3.8252404 6.69903842 3 10 C-0.00617269 6.99382731 0.40414684 4.17618402 0 0 Z " fill="#57B2FC" transform="translate(164,293)"/>
<path d="M0 0 C1.13643966 3.40931897 0.86747764 4.00335456 -0.4375 7.1875 C-0.72496094 7.90292969 -1.01242187 8.61835938 -1.30859375 9.35546875 C-1.53675781 9.89816406 -1.76492188 10.44085938 -2 11 C-3.125 9.25 -3.125 9.25 -4 7 C-3.03284133 4.34031367 -1.58051758 2.37077638 0 0 Z " fill="#4EADFB" transform="translate(434,276)"/>
<path d="M0 0 C0.33 0 0.66 0 1 0 C1 3.63 1 7.26 1 11 C0.01 11 -0.98 11 -2 11 C-1 3.57142857 -1 3.57142857 0 0 Z " fill="#4DA7F8" transform="translate(19,254)"/>
<path d="M0 0 C1.13643966 3.40931897 0.86747764 4.00335456 -0.4375 7.1875 C-0.72496094 7.90292969 -1.01242187 8.61835938 -1.30859375 9.35546875 C-1.53675781 9.89816406 -1.76492188 10.44085938 -2 11 C-3.125 9.25 -3.125 9.25 -4 7 C-3.03284133 4.34031367 -1.58051758 2.37077638 0 0 Z " fill="#52ACFC" transform="translate(446,242)"/>
<path d="M0 0 C0.99 0.33 1.98 0.66 3 1 C0.6875 3.5 0.6875 3.5 -2 6 C-2.99 6 -3.98 6 -5 6 C-3.625 4 -3.625 4 -2 2 C-1.34 2 -0.68 2 0 2 C0 1.34 0 0.68 0 0 Z " fill="#40A3FB" transform="translate(548,619)"/>
<path d="M0 0 C1.13643966 3.40931897 0.86747764 4.00335456 -0.4375 7.1875 C-0.86869141 8.26064453 -0.86869141 8.26064453 -1.30859375 9.35546875 C-1.53675781 9.89816406 -1.76492188 10.44085938 -2 11 C-2.33 11 -2.66 11 -3 11 C-3.36923077 3.49230769 -3.36923077 3.49230769 -1.5 1 C-1.005 0.67 -0.51 0.34 0 0 Z " fill="#58B2FD" transform="translate(400,373)"/>
<path d="M0 0 C0.33 0 0.66 0 1 0 C1.36923077 5.53846154 1.36923077 5.53846154 -0.5 7.875 C-1.2425 8.431875 -1.2425 8.431875 -2 9 C-3 6 -3 6 -1.5625 2.8125 C-1.046875 1.884375 -0.53125 0.95625 0 0 Z " fill="#46AAF9" transform="translate(36,207)"/>
<path d="M0 0 C0.99 0 1.98 0 3 0 C3.33 1.32 3.66 2.64 4 4 C1.525 5.485 1.525 5.485 -1 7 C-0.67 4.69 -0.34 2.38 0 0 Z " fill="#3EA5FB" transform="translate(76,136)"/>
<path d="M0 0 C2.3125 0.1875 2.3125 0.1875 5 1 C6.8125 3.5625 6.8125 3.5625 8 6 C4.63408134 4.55746343 2.48952921 2.66735273 0 0 Z " fill="#4AA2FA" transform="translate(143,616)"/>
<path d="M0 0 C0.66 0 1.32 0 2 0 C3.38938077 1.96147874 4.7260411 3.96166576 6 6 C4.35 6 2.7 6 1 6 C0.67 4.02 0.34 2.04 0 0 Z " fill="#3CA6FC" transform="translate(155,496)"/>
<path d="M0 0 C0.99 0 1.98 0 3 0 C1.25 5.75 1.25 5.75 -1 8 C-1.93065133 5.39417629 -2.14917407 4.35801776 -1.0625 1.75 C-0.711875 1.1725 -0.36125 0.595 0 0 Z " fill="#3EA2FA" transform="translate(656,491)"/>
<path d="M0 0 C0.95904856 3.83619425 0.91892116 5.32431536 0 9 C-0.99 9.33 -1.98 9.66 -3 10 C-2.01 6.7 -1.02 3.4 0 0 Z " fill="#5DB5FD" transform="translate(283,448)"/>
<path d="M0 0 C0.66 0 1.32 0 2 0 C3.625 2.5 3.625 2.5 5 5 C4.01 6.485 4.01 6.485 3 8 C1.02 4.535 1.02 4.535 -1 1 C-0.67 0.67 -0.34 0.34 0 0 Z " fill="#3D9FFB" transform="translate(308,299)"/>
<path d="M0 0 C1.31602523 0.61754259 2.62773556 1.24428742 3.9375 1.875 C4.66839844 2.22304688 5.39929688 2.57109375 6.15234375 2.9296875 C8 4 8 4 9 6 C6.69 5.34 4.38 4.68 2 4 C2 3.34 2 2.68 2 2 C1.34 2 0.68 2 0 2 C0 1.34 0 0.68 0 0 Z " fill="#4DAAFD" transform="translate(535,59)"/>
<path d="M0 0 C0 3 0 3 -1.875 5.1875 C-4 7 -4 7 -6 7 C-5.8125 5.1875 -5.8125 5.1875 -5 3 C-2.4375 1.25 -2.4375 1.25 0 0 Z " fill="#3EA7FD" transform="translate(595,581)"/>
<path d="M0 0 C1 3 1 3 0.22265625 4.82421875 C-0.8515625 6.54947917 -1.92578125 8.27473958 -3 10 C-3.66 9.01 -4.32 8.02 -5 7 C-4.360625 6.21625 -3.72125 5.4325 -3.0625 4.625 C-1.01857687 2.20460719 -1.01857687 2.20460719 0 0 Z " fill="#5BB3FC" transform="translate(221,429)"/>
<path d="M0 0 C0.33 0 0.66 0 1 0 C1 1.65 1 3.3 1 5 C0.34 5 -0.32 5 -1 5 C-1.66 6.65 -2.32 8.3 -3 10 C-3.33 9.34 -3.66 8.68 -4 8 C-3.22265625 6.0546875 -3.22265625 6.0546875 -2.0625 3.875 C-1.49208984 2.78832031 -1.49208984 2.78832031 -0.91015625 1.6796875 C-0.60980469 1.12539063 -0.30945313 0.57109375 0 0 Z " fill="#1784F9" transform="translate(222,424)"/>
<path d="M0 0 C1.485 0.99 1.485 0.99 3 2 C2.34 3.98 1.68 5.96 1 8 C0.34 8 -0.32 8 -1 8 C-0.67 5.36 -0.34 2.72 0 0 Z " fill="#389BF8" transform="translate(295,418)"/>
<path d="M0 0 C3 1 3 1 4.3125 3.375 C4.6528125 4.674375 4.6528125 4.674375 5 6 C4.01 7.485 4.01 7.485 3 9 C2.01 6.03 1.02 3.06 0 0 Z " fill="#4DA8FB" transform="translate(314,311)"/>
<path d="M0 0 C3.65316671 1.24976756 4.78065836 1.67098753 7 5 C4.625 4.75 4.625 4.75 2 4 C0.6875 1.9375 0.6875 1.9375 0 0 Z " fill="#2E95FB" transform="translate(537,295)"/>
<path d="M0 0 C0.33 0 0.66 0 1 0 C1.36923077 5.53846154 1.36923077 5.53846154 -0.5 7.875 C-1.2425 8.431875 -1.2425 8.431875 -2 9 C-3 6 -3 6 -1.5625 2.8125 C-1.046875 1.884375 -0.53125 0.95625 0 0 Z " fill="#4BA7F9" transform="translate(42,194)"/>
<path d="M0 0 C0 0.66 0 1.32 0 2 C-2.97 2 -5.94 2 -9 2 C-4 -1.33333333 -4 -1.33333333 0 0 Z " fill="#4FA8FC" transform="translate(236,25)"/>
<path d="M0 0 C2.97 0 5.94 0 9 0 C9 0.33 9 0.66 9 1 C6.03 1 3.06 1 0 1 C0 0.67 0 0.34 0 0 Z " fill="#46BEFE" transform="translate(524,154)"/>
<path d="M0 0 C0.66 1.32 1.32 2.64 2 4 C1.01 4.495 1.01 4.495 0 5 C0 3.35 0 1.7 0 0 Z " fill="#31CDFF" transform="translate(13,416)"/>
<path d="M0 0 C0.33 0 0.66 0 1 0 C1 1.65 1 3.3 1 5 C0.67 5 0.34 5 0 5 C0 3.35 0 1.7 0 0 Z " fill="#43C7FF" transform="translate(165,317)"/>
<path d="M0 0 C0.33 0 0.66 0 1 0 C1 1.65 1 3.3 1 5 C0.67 5 0.34 5 0 5 C0 3.35 0 1.7 0 0 Z " fill="#7694FF" transform="translate(557,204)"/>
<path d="M0 0 C0.99 0.33 1.98 0.66 3 1 C2.01 1 1.02 1 0 1 C0 0.67 0 0.34 0 0 Z " fill="#3FEFFF" transform="translate(372,441)"/>
<path d="M0 0 C0.66 0 1.32 0 2 0 C1.67 0.99 1.34 1.98 1 3 C0.67 2.01 0.34 1.02 0 0 Z " fill="#4AB4FF" transform="translate(187,412)"/>
<path d="M0 0 C1 4 1 4 1 4 Z " fill="#39C5FF" transform="translate(6,366)"/>
<path d="M0 0 C0.99 0.33 1.98 0.66 3 1 C2.01 1 1.02 1 0 1 C0 0.67 0 0.34 0 0 Z " fill="#4AB4FF" transform="translate(310,312)"/>
<path d="M0 0 C0.66 0 1.32 0 2 0 C1.67 0.99 1.34 1.98 1 3 C0.67 2.01 0.34 1.02 0 0 Z " fill="#54A9FF" transform="translate(556,198)"/>
<path d="M0 0 C4 1 4 1 4 1 Z " fill="#4FAFFF" transform="translate(535,154)"/>
<path d="M0 0 C4 1 4 1 4 1 Z " fill="#4AB4FF" transform="translate(519,154)"/>
<path d="M0 0 C0.33 0.99 0.66 1.98 1 3 C0.34 2.67 -0.32 2.34 -1 2 C-0.67 1.34 -0.34 0.68 0 0 Z " fill="#41B0FF" transform="translate(214,28)"/>
<path d="M0 0 C0.66 0 1.32 0 2 0 C1.67 0.66 1.34 1.32 1 2 C0.67 1.34 0.34 0.68 0 0 Z " fill="#46B8FF" transform="translate(286,681)"/>
<path d="M0 0 C0.66 0.66 1.32 1.32 2 2 C1.34 2 0.68 2 0 2 C0 1.34 0 0.68 0 0 Z " fill="#00FFFF" transform="translate(244,534)"/>
<path d="M0 0 C0.99 0.495 0.99 0.495 2 1 C1.01 1.495 1.01 1.495 0 2 C0 1.34 0 0.68 0 0 Z " fill="#00FFFF" transform="translate(254,515)"/>
<path d="" fill="#00FFFF" transform="translate(0,0)"/>
<path d="" fill="#00FFFF" transform="translate(0,0)"/>
<path d="M0 0 C0.66 0 1.32 0 2 0 C1.67 0.66 1.34 1.32 1 2 C0.67 1.34 0.34 0.68 0 0 Z " fill="#46CDFF" transform="translate(196,424)"/>
<path d="M0 0 C3 1 3 1 3 1 Z " fill="#54A9FF" transform="translate(189,415)"/>
<path d="" fill="#3FA9FF" transform="translate(0,0)"/>
<path d="M0 0 C0.99 0.495 0.99 0.495 2 1 C1.01 1.495 1.01 1.495 0 2 C0 1.34 0 0.68 0 0 Z " fill="#54E9FF" transform="translate(356,408)"/>
<path d="M0 0 C3 1 3 1 3 1 Z " fill="#1CE2FF" transform="translate(181,395)"/>
<path d="M0 0 C0.33 0.66 0.66 1.32 1 2 C0.34 1.67 -0.32 1.34 -1 1 C-0.67 0.67 -0.34 0.34 0 0 Z " fill="#2AFFFF" transform="translate(469,381)"/>
<path d="M0 0 C0.33 0.66 0.66 1.32 1 2 C0.34 1.67 -0.32 1.34 -1 1 C-0.67 0.67 -0.34 0.34 0 0 Z " fill="#2AD4FF" transform="translate(477,364)"/>
<path d="M0 0 C0.66 0.66 1.32 1.32 2 2 C1.34 2 0.68 2 0 2 C0 1.34 0 0.68 0 0 Z " fill="#40CAFE" transform="translate(325,339)"/>
<path d="" fill="#54A9FF" transform="translate(0,0)"/>
<path d="M0 0 C0.66 0.66 1.32 1.32 2 2 C1.34 2 0.68 2 0 2 C0 1.34 0 0.68 0 0 Z " fill="#2AFFFF" transform="translate(487,332)"/>
<path d="" fill="#54A9FF" transform="translate(0,0)"/>
<path d="M0 0 C3 1 3 1 3 1 Z " fill="#00FFFF" transform="translate(508,272)"/>
<path d="M0 0 C0.66 0 1.32 0 2 0 C1.67 0.66 1.34 1.32 1 2 C0.67 1.34 0.34 0.68 0 0 Z " fill="#1CE2FF" transform="translate(556,249)"/>
<path d="" fill="#54BFFF" transform="translate(0,0)"/>
<path d="M0 0 C0.33 0.66 0.66 1.32 1 2 C0.34 1.67 -0.32 1.34 -1 1 C-0.67 0.67 -0.34 0.34 0 0 Z " fill="#2AD4FF" transform="translate(557,185)"/>
<path d="M0 0 C0.33 0.66 0.66 1.32 1 2 C0.34 1.67 -0.32 1.34 -1 1 C-0.67 0.67 -0.34 0.34 0 0 Z " fill="#718DFF" transform="translate(557,182)"/>
<path d="M0 0 C0.66 0 1.32 0 2 0 C1.67 0.66 1.34 1.32 1 2 C0.67 1.34 0.34 0.68 0 0 Z " fill="#54A9FF" transform="translate(408,163)"/>
<path d="M0 0 C3 1 3 1 3 1 Z " fill="#3FBFFF" transform="translate(551,153)"/>
<path d="M0 0 C0.33 0.66 0.66 1.32 1 2 C0.34 1.67 -0.32 1.34 -1 1 C-0.67 0.67 -0.34 0.34 0 0 Z " fill="#15D4FF" transform="translate(627,140)"/>
<path d="" fill="#2AD4FF" transform="translate(0,0)"/>
<path d="M0 0 C2 1 2 1 2 1 Z " fill="#4AB4FF" transform="translate(408,682)"/>
<path d="" fill="#24C8FE" transform="translate(0,0)"/>
<path d="M0 0 C2 1 2 1 2 1 Z " fill="#3FBFFF" transform="translate(248,672)"/>
<path d="M0 0 C2 1 2 1 2 1 Z " fill="#00FFFF" transform="translate(220,666)"/>
<path d="M0 0 C2 1 2 1 2 1 Z " fill="#3FBFFF" transform="translate(175,641)"/>
<path d="M0 0 C2 1 2 1 2 1 Z " fill="#3FBFFF" transform="translate(226,547)"/>
<path d="" fill="#6A94FF" transform="translate(0,0)"/>
<path d="" fill="#44A1FF" transform="translate(0,0)"/>
<path d="" fill="#72A5FF" transform="translate(0,0)"/>
<path d="M0 0 C2 1 2 1 2 1 Z " fill="#00BFFF" transform="translate(63,535)"/>
<path d="" fill="#7F7FFF" transform="translate(0,0)"/>
<path d="" fill="#6AD4FF" transform="translate(0,0)"/>
<path d="" fill="#2AD4FF" transform="translate(0,0)"/>
<path d="" fill="#3FBFFF" transform="translate(0,0)"/>
<path d="" fill="#3FBFFF" transform="translate(0,0)"/>
<path d="M0 0 C2 1 2 1 2 1 Z " fill="#00FFFF" transform="translate(321,470)"/>
<path d="M0 0 C2 1 2 1 2 1 Z " fill="#2AD4FF" transform="translate(129,458)"/>
<path d="" fill="#3FBFFF" transform="translate(0,0)"/>
<path d="" fill="#5F9FFF" transform="translate(0,0)"/>
<path d="" fill="#55AAFF" transform="translate(0,0)"/>
<path d="" fill="#55AAFF" transform="translate(0,0)"/>
<path d="" fill="#00FFFF" transform="translate(0,0)"/>
<path d="" fill="#7FD4FF" transform="translate(0,0)"/>
<path d="M0 0 C2 1 2 1 2 1 Z " fill="#3FDFFF" transform="translate(460,410)"/>
<path d="M0 0 C2 1 2 1 2 1 Z " fill="#7F7FFF" transform="translate(189,410)"/>
<path d="" fill="#3FDFFF" transform="translate(0,0)"/>
<path d="" fill="#00FFFF" transform="translate(0,0)"/>
<path d="" fill="#2AD4FF" transform="translate(0,0)"/>
<path d="" fill="#3FDFFF" transform="translate(0,0)"/>
<path d="M0 0 C2 1 2 1 2 1 Z " fill="#3FFFFF" transform="translate(172,376)"/>
<path d="" fill="#5DBBFF" transform="translate(0,0)"/>
<path d="" fill="#2AD4FF" transform="translate(0,0)"/>
<path d="" fill="#00FFFF" transform="translate(0,0)"/>
<path d="" fill="#3FBFFF" transform="translate(0,0)"/>
<path d="" fill="#3FBFFF" transform="translate(0,0)"/>
<path d="" fill="#7FBFFF" transform="translate(0,0)"/>
<path d="" fill="#3FBFFF" transform="translate(0,0)"/>
<path d="" fill="#7F9FFF" transform="translate(0,0)"/>
<path d="" fill="#2AD4FF" transform="translate(0,0)"/>
<path d="M0 0 C2 1 2 1 2 1 Z " fill="#3FFFFF" transform="translate(140,294)"/>
<path d="" fill="#00FFFF" transform="translate(0,0)"/>
<path d="" fill="#3FBFFF" transform="translate(0,0)"/>
<path d="M0 0 C2 1 2 1 2 1 Z " fill="#00FFFF" transform="translate(448,242)"/>
<path d="M0 0 C2 1 2 1 2 1 Z " fill="#3FBFFF" transform="translate(666,203)"/>
<path d="M0 0 C2 1 2 1 2 1 Z " fill="#3F9FFF" transform="translate(44,185)"/>
<path d="" fill="#2AD4FF" transform="translate(0,0)"/>
<path d="" fill="#6A94FF" transform="translate(0,0)"/>
<path d="" fill="#2AD4FF" transform="translate(0,0)"/>
<path d="" fill="#6A94FF" transform="translate(0,0)"/>
<path d="" fill="#3FBFFF" transform="translate(0,0)"/>
<path d="M0 0 C2 1 2 1 2 1 Z " fill="#3FBFFF" transform="translate(405,160)"/>
<path d="M0 0 C2 1 2 1 2 1 Z " fill="#3FBFFF" transform="translate(68,142)"/>
<path d="M0 0 C2 1 2 1 2 1 Z " fill="#00FFFF" transform="translate(72,140)"/>
<path d="" fill="#00FFFF" transform="translate(0,0)"/>
<path d="" fill="#00BFFF" transform="translate(0,0)"/>
<path d="" fill="#00FFFF" transform="translate(0,0)"/>
<path d="" fill="#3FBFFF" transform="translate(0,0)"/>
<path d="M0 0 C2 1 2 1 2 1 Z " fill="#3FBFFF" transform="translate(514,45)"/>
<path d="M0 0 C2 1 2 1 2 1 Z " fill="#00FFFF" transform="translate(195,38)"/>
<path d="M0 0 C2 1 2 1 2 1 Z " fill="#55AAFF" transform="translate(426,12)"/>
<path d="M0 0 C2 1 2 1 2 1 Z " fill="#3FBFFF" transform="translate(294,7)"/>
<path d="" fill="#00FFFF" transform="translate(0,0)"/>
<path d="" fill="#00FFFF" transform="translate(0,0)"/>
<path d="" fill="#00FFFF" transform="translate(0,0)"/>
<path d="" fill="#7F7FFF" transform="translate(0,0)"/>
<path d="" fill="#00FFFF" transform="translate(0,0)"/>
<path d="" fill="#3F7FFF" transform="translate(0,0)"/>
<path d="" fill="#00FFFF" transform="translate(0,0)"/>
<path d="" fill="#00FFFF" transform="translate(0,0)"/>
<path d="" fill="#00FFFF" transform="translate(0,0)"/>
<path d="" fill="#00FFFF" transform="translate(0,0)"/>
<path d="" fill="#00FFFF" transform="translate(0,0)"/>
<path d="" fill="#7F7FFF" transform="translate(0,0)"/>
<path d="" fill="#7F7FFF" transform="translate(0,0)"/>
<path d="" fill="#00FFFF" transform="translate(0,0)"/>
<path d="" fill="#00FFFF" transform="translate(0,0)"/>
<path d="" fill="#3F7FFF" transform="translate(0,0)"/>
<path d="" fill="#00FFFF" transform="translate(0,0)"/>
<path d="" fill="#00FFFF" transform="translate(0,0)"/>
<path d="" fill="#00FFFF" transform="translate(0,0)"/>
<path d="" fill="#00FFFF" transform="translate(0,0)"/>
<path d="" fill="#3F7FFF" transform="translate(0,0)"/>
<path d="" fill="#3F7FFF" transform="translate(0,0)"/>
<path d="" fill="#7F7FFF" transform="translate(0,0)"/>
<path d="" fill="#55AAFF" transform="translate(0,0)"/>
<path d="" fill="#00FFFF" transform="translate(0,0)"/>
<path d="" fill="#00FFFF" transform="translate(0,0)"/>
<path d="" fill="#3F7FFF" transform="translate(0,0)"/>
<path d="" fill="#3F7FFF" transform="translate(0,0)"/>
<path d="" fill="#3FBFFF" transform="translate(0,0)"/>
<path d="" fill="#00FFFF" transform="translate(0,0)"/>
<path d="" fill="#55AAFF" transform="translate(0,0)"/>
<path d="" fill="#00FFFF" transform="translate(0,0)"/>
<path d="" fill="#00FFFF" transform="translate(0,0)"/>
<path d="" fill="#7F7FFF" transform="translate(0,0)"/>
<path d="" fill="#00FFFF" transform="translate(0,0)"/>
<path d="" fill="#7F7FFF" transform="translate(0,0)"/>
<path d="" fill="#00FFFF" transform="translate(0,0)"/>
<path d="" fill="#00FFFF" transform="translate(0,0)"/>
<path d="" fill="#7F7FFF" transform="translate(0,0)"/>
<path d="" fill="#55AAFF" transform="translate(0,0)"/>
<path d="" fill="#00FFFF" transform="translate(0,0)"/>
<path d="" fill="#00FFFF" transform="translate(0,0)"/>
<path d="" fill="#00FFFF" transform="translate(0,0)"/>
<path d="" fill="#00FFFF" transform="translate(0,0)"/>
<path d="" fill="#007FFF" transform="translate(0,0)"/>
<path d="" fill="#00FFFF" transform="translate(0,0)"/>
<path d="" fill="#00FFFF" transform="translate(0,0)"/>
<path d="" fill="#7F7FFF" transform="translate(0,0)"/>
<path d="" fill="#007FFF" transform="translate(0,0)"/>
<path d="" fill="#00FFFF" transform="translate(0,0)"/>
<path d="" fill="#7F7FFF" transform="translate(0,0)"/>
<path d="" fill="#55AAFF" transform="translate(0,0)"/>
<path d="" fill="#00FFFF" transform="translate(0,0)"/>
<path d="" fill="#55AAFF" transform="translate(0,0)"/>
<path d="" fill="#7F7FFF" transform="translate(0,0)"/>
<path d="" fill="#00FFFF" transform="translate(0,0)"/>
<path d="" fill="#00FFFF" transform="translate(0,0)"/>
<path d="" fill="#00FFFF" transform="translate(0,0)"/>
<path d="" fill="#7F7FFF" transform="translate(0,0)"/>
<path d="" fill="#007FFF" transform="translate(0,0)"/>
<path d="" fill="#55AAFF" transform="translate(0,0)"/>
<path d="" fill="#7F7FFF" transform="translate(0,0)"/>
<path d="" fill="#00FFFF" transform="translate(0,0)"/>
<path d="" fill="#00FFFF" transform="translate(0,0)"/>
<path d="" fill="#7FBFFF" transform="translate(0,0)"/>
<path d="" fill="#00FFFF" transform="translate(0,0)"/>
<path d="" fill="#00FFFF" transform="translate(0,0)"/>
<path d="" fill="#00FFFF" transform="translate(0,0)"/>
<path d="" fill="#7F7FFF" transform="translate(0,0)"/>
<path d="" fill="#00FFFF" transform="translate(0,0)"/>
<path d="" fill="#55AAFF" transform="translate(0,0)"/>
<path d="" fill="#00FFFF" transform="translate(0,0)"/>
<path d="" fill="#00FFFF" transform="translate(0,0)"/>
<path d="" fill="#00FFFF" transform="translate(0,0)"/>
<path d="" fill="#00FFFF" transform="translate(0,0)"/>
<path d="" fill="#3399FF" transform="translate(0,0)"/>
<path d="" fill="#7F7FFF" transform="translate(0,0)"/>
<path d="" fill="#00FFFF" transform="translate(0,0)"/>
<path d="" fill="#7F7FFF" transform="translate(0,0)"/>
<path d="" fill="#00FFFF" transform="translate(0,0)"/>
<path d="" fill="#00FFFF" transform="translate(0,0)"/>
<path d="" fill="#7F7FFF" transform="translate(0,0)"/>
<path d="" fill="#7F7FFF" transform="translate(0,0)"/>
<path d="" fill="#7F7FFF" transform="translate(0,0)"/>
<path d="" fill="#00FFFF" transform="translate(0,0)"/>
<path d="" fill="#7F7FFF" transform="translate(0,0)"/>
<path d="" fill="#7F7FFF" transform="translate(0,0)"/>
<path d="" fill="#7F7FFF" transform="translate(0,0)"/>
<path d="" fill="#00FFFF" transform="translate(0,0)"/>
<path d="" fill="#55AAFF" transform="translate(0,0)"/>
<path d="" fill="#00FFFF" transform="translate(0,0)"/>
<path d="" fill="#00FFFF" transform="translate(0,0)"/>
<path d="" fill="#55AAFF" transform="translate(0,0)"/>
<path d="" fill="#00FFFF" transform="translate(0,0)"/>
<path d="" fill="#00FFFF" transform="translate(0,0)"/>
<path d="" fill="#3FBFFF" transform="translate(0,0)"/>
<path d="" fill="#55AAFF" transform="translate(0,0)"/>
<path d="" fill="#00FFFF" transform="translate(0,0)"/>
<path d="" fill="#55AAFF" transform="translate(0,0)"/>
<path d="" fill="#7F7FFF" transform="translate(0,0)"/>
<path d="" fill="#00FFFF" transform="translate(0,0)"/>
<path d="" fill="#00FFFF" transform="translate(0,0)"/>
<path d="" fill="#55AAFF" transform="translate(0,0)"/>
<path d="" fill="#7F7FFF" transform="translate(0,0)"/>
<path d="" fill="#7F7FFF" transform="translate(0,0)"/>
<path d="" fill="#7F7FFF" transform="translate(0,0)"/>
<path d="" fill="#7F7FFF" transform="translate(0,0)"/>
<path d="" fill="#00FFFF" transform="translate(0,0)"/>
<path d="" fill="#55AAFF" transform="translate(0,0)"/>
<path d="" fill="#3399FF" transform="translate(0,0)"/>
<path d="" fill="#00FFFF" transform="translate(0,0)"/>
<path d="" fill="#00FFFF" transform="translate(0,0)"/>
<path d="" fill="#00FFFF" transform="translate(0,0)"/>
<path d="" fill="#00FFFF" transform="translate(0,0)"/>
<path d="" fill="#3FBFFF" transform="translate(0,0)"/>
<path d="" fill="#00FFFF" transform="translate(0,0)"/>
<path d="" fill="#00FFFF" transform="translate(0,0)"/>
<path d="" fill="#7F7FFF" transform="translate(0,0)"/>
<path d="" fill="#00FFFF" transform="translate(0,0)"/>
<path d="" fill="#00FFFF" transform="translate(0,0)"/>
<path d="" fill="#00FFFF" transform="translate(0,0)"/>
<path d="" fill="#6699FF" transform="translate(0,0)"/>
<path d="" fill="#55AAFF" transform="translate(0,0)"/>
<path d="" fill="#7F7FFF" transform="translate(0,0)"/>
<path d="" fill="#00FFFF" transform="translate(0,0)"/>
<path d="" fill="#00FFFF" transform="translate(0,0)"/>
<path d="" fill="#00FFFF" transform="translate(0,0)"/>
<path d="" fill="#7F7FFF" transform="translate(0,0)"/>
<path d="" fill="#7F7FFF" transform="translate(0,0)"/>
<path d="" fill="#55AAFF" transform="translate(0,0)"/>
<path d="" fill="#00FFFF" transform="translate(0,0)"/>
<path d="" fill="#00FFFF" transform="translate(0,0)"/>
<path d="" fill="#55AAFF" transform="translate(0,0)"/>
<path d="" fill="#7F7FFF" transform="translate(0,0)"/>
<path d="" fill="#55AAFF" transform="translate(0,0)"/>
<path d="" fill="#00FFFF" transform="translate(0,0)"/>
<path d="" fill="#00FFFF" transform="translate(0,0)"/>
<path d="" fill="#00FFFF" transform="translate(0,0)"/>
<path d="" fill="#00FFFF" transform="translate(0,0)"/>
<path d="" fill="#7FBFFF" transform="translate(0,0)"/>
<path d="" fill="#7F7FFF" transform="translate(0,0)"/>
<path d="" fill="#00FFFF" transform="translate(0,0)"/>
<path d="" fill="#7F7FFF" transform="translate(0,0)"/>
<path d="" fill="#66CCFF" transform="translate(0,0)"/>
<path d="" fill="#7FFFFF" transform="translate(0,0)"/>
<path d="" fill="#00FFFF" transform="translate(0,0)"/>
<path d="" fill="#7F7FFF" transform="translate(0,0)"/>
<path d="" fill="#00FFFF" transform="translate(0,0)"/>
<path d="" fill="#00FFFF" transform="translate(0,0)"/>
<path d="" fill="#00FFFF" transform="translate(0,0)"/>
<path d="" fill="#7FFFFF" transform="translate(0,0)"/>
<path d="" fill="#3FBFFF" transform="translate(0,0)"/>
<path d="" fill="#55AAFF" transform="translate(0,0)"/>
<path d="" fill="#00FFFF" transform="translate(0,0)"/>
<path d="" fill="#7FBFFF" transform="translate(0,0)"/>
<path d="" fill="#00FFFF" transform="translate(0,0)"/>
<path d="" fill="#55AAFF" transform="translate(0,0)"/>
<path d="" fill="#7F7FFF" transform="translate(0,0)"/>
<path d="" fill="#00FFFF" transform="translate(0,0)"/>
<path d="" fill="#00FFFF" transform="translate(0,0)"/>
<path d="" fill="#7F7FFF" transform="translate(0,0)"/>
<path d="" fill="#7F7FFF" transform="translate(0,0)"/>
<path d="" fill="#7FD4FF" transform="translate(0,0)"/>
<path d="" fill="#00FFFF" transform="translate(0,0)"/>
<path d="" fill="#00FFFF" transform="translate(0,0)"/>
<path d="" fill="#00FFFF" transform="translate(0,0)"/>
<path d="" fill="#55AAFF" transform="translate(0,0)"/>
<path d="" fill="#00FFFF" transform="translate(0,0)"/>
<path d="" fill="#00FFFF" transform="translate(0,0)"/>
<path d="" fill="#55AAFF" transform="translate(0,0)"/>
<path d="" fill="#00FFFF" transform="translate(0,0)"/>
<path d="" fill="#7FFFFF" transform="translate(0,0)"/>
<path d="" fill="#00FFFF" transform="translate(0,0)"/>
<path d="" fill="#7FBFFF" transform="translate(0,0)"/>
<path d="" fill="#7FBFFF" transform="translate(0,0)"/>
<path d="" fill="#66CCFF" transform="translate(0,0)"/>
<path d="" fill="#3FBFFF" transform="translate(0,0)"/>
<path d="" fill="#00FFFF" transform="translate(0,0)"/>
<path d="" fill="#00FFFF" transform="translate(0,0)"/>
<path d="" fill="#7FFFFF" transform="translate(0,0)"/>
<path d="" fill="#00FFFF" transform="translate(0,0)"/>
<path d="" fill="#55AAFF" transform="translate(0,0)"/>
<path d="" fill="#55AAFF" transform="translate(0,0)"/>
<path d="" fill="#7FD4FF" transform="translate(0,0)"/>
<path d="" fill="#7FFFFF" transform="translate(0,0)"/>
<path d="" fill="#55AAFF" transform="translate(0,0)"/>
<path d="" fill="#55AAFF" transform="translate(0,0)"/>
<path d="" fill="#00FFFF" transform="translate(0,0)"/>
<path d="" fill="#7F7FFF" transform="translate(0,0)"/>
<path d="" fill="#00FFFF" transform="translate(0,0)"/>
<path d="" fill="#00FFFF" transform="translate(0,0)"/>
<path d="" fill="#00FFFF" transform="translate(0,0)"/>
<path d="" fill="#00FFFF" transform="translate(0,0)"/>
<path d="" fill="#7F7FFF" transform="translate(0,0)"/>
<path d="" fill="#00FFFF" transform="translate(0,0)"/>
<path d="" fill="#55AAFF" transform="translate(0,0)"/>
<path d="" fill="#00FFFF" transform="translate(0,0)"/>
<path d="" fill="#00FFFF" transform="translate(0,0)"/>
<path d="" fill="#00FFFF" transform="translate(0,0)"/>
<path d="" fill="#55AAFF" transform="translate(0,0)"/>
<path d="" fill="#55AAFF" transform="translate(0,0)"/>
<path d="" fill="#00FFFF" transform="translate(0,0)"/>
<path d="" fill="#7FFFFF" transform="translate(0,0)"/>
<path d="" fill="#7FFFFF" transform="translate(0,0)"/>
<path d="" fill="#00FFFF" transform="translate(0,0)"/>
<path d="" fill="#00FFFF" transform="translate(0,0)"/>
<path d="" fill="#3399FF" transform="translate(0,0)"/>
<path d="" fill="#00FFFF" transform="translate(0,0)"/>
<path d="" fill="#00FFFF" transform="translate(0,0)"/>
<path d="" fill="#00FFFF" transform="translate(0,0)"/>
<path d="" fill="#55AAFF" transform="translate(0,0)"/>
<path d="" fill="#00FFFF" transform="translate(0,0)"/>
<path d="" fill="#55AAFF" transform="translate(0,0)"/>
<path d="" fill="#7F7FFF" transform="translate(0,0)"/>
<path d="" fill="#00FFFF" transform="translate(0,0)"/>
<path d="" fill="#00FFFF" transform="translate(0,0)"/>
<path d="" fill="#FFFFFF" transform="translate(0,0)"/>
<path d="" fill="#55AAFF" transform="translate(0,0)"/>
<path d="" fill="#00FFFF" transform="translate(0,0)"/>
<path d="" fill="#00FFFF" transform="translate(0,0)"/>
<path d="" fill="#00FFFF" transform="translate(0,0)"/>
<path d="" fill="#00FFFF" transform="translate(0,0)"/>
<path d="" fill="#7FFFFF" transform="translate(0,0)"/>
<path d="" fill="#7FFFFF" transform="translate(0,0)"/>
<path d="" fill="#00FFFF" transform="translate(0,0)"/>
<path d="" fill="#7FBFFF" transform="translate(0,0)"/>
<path d="" fill="#00FFFF" transform="translate(0,0)"/>
<path d="" fill="#00FFFF" transform="translate(0,0)"/>
<path d="" fill="#7F7FFF" transform="translate(0,0)"/>
<path d="" fill="#00FFFF" transform="translate(0,0)"/>
<path d="" fill="#7F7FFF" transform="translate(0,0)"/>
<path d="" fill="#66CCFF" transform="translate(0,0)"/>
<path d="" fill="#55AAFF" transform="translate(0,0)"/>
<path d="" fill="#00FFFF" transform="translate(0,0)"/>
<path d="" fill="#7F7FFF" transform="translate(0,0)"/>
<path d="" fill="#7FFFFF" transform="translate(0,0)"/>
<path d="" fill="#7FD4FF" transform="translate(0,0)"/>
<path d="" fill="#7F7FFF" transform="translate(0,0)"/>
<path d="" fill="#7FFFFF" transform="translate(0,0)"/>
<path d="" fill="#00FFFF" transform="translate(0,0)"/>
<path d="" fill="#00FFFF" transform="translate(0,0)"/>
<path d="" fill="#00FFFF" transform="translate(0,0)"/>
<path d="" fill="#7F7FFF" transform="translate(0,0)"/>
<path d="" fill="#55AAFF" transform="translate(0,0)"/>
<path d="" fill="#7FFFFF" transform="translate(0,0)"/>
<path d="" fill="#55AAFF" transform="translate(0,0)"/>
<path d="" fill="#7FFFFF" transform="translate(0,0)"/>
<path d="" fill="#55AAFF" transform="translate(0,0)"/>
<path d="" fill="#7F7FFF" transform="translate(0,0)"/>
<path d="" fill="#00FFFF" transform="translate(0,0)"/>
<path d="" fill="#7FFFFF" transform="translate(0,0)"/>
<path d="" fill="#7F7FFF" transform="translate(0,0)"/>
<path d="" fill="#7FFFFF" transform="translate(0,0)"/>
<path d="" fill="#00FFFF" transform="translate(0,0)"/>
<path d="" fill="#00FFFF" transform="translate(0,0)"/>
<path d="" fill="#7FFFFF" transform="translate(0,0)"/>
<path d="" fill="#66CCFF" transform="translate(0,0)"/>
<path d="" fill="#00FFFF" transform="translate(0,0)"/>
<path d="" fill="#00FFFF" transform="translate(0,0)"/>
<path d="" fill="#55AAFF" transform="translate(0,0)"/>
<path d="" fill="#55AAFF" transform="translate(0,0)"/>
<path d="" fill="#00FFFF" transform="translate(0,0)"/>
<path d="" fill="#7FFFFF" transform="translate(0,0)"/>
<path d="" fill="#7FFFFF" transform="translate(0,0)"/>
<path d="" fill="#7F7FFF" transform="translate(0,0)"/>
<path d="" fill="#55AAFF" transform="translate(0,0)"/>
<path d="" fill="#7FFFFF" transform="translate(0,0)"/>
<path d="" fill="#7F7FFF" transform="translate(0,0)"/>
<path d="" fill="#00FFFF" transform="translate(0,0)"/>
<path d="" fill="#7F7FFF" transform="translate(0,0)"/>
<path d="" fill="#55AAFF" transform="translate(0,0)"/>
<path d="" fill="#7F7FFF" transform="translate(0,0)"/>
<path d="" fill="#00FFFF" transform="translate(0,0)"/>
<path d="" fill="#7F7FFF" transform="translate(0,0)"/>
<path d="" fill="#00FFFF" transform="translate(0,0)"/>
<path d="" fill="#55AAFF" transform="translate(0,0)"/>
<path d="" fill="#00FFFF" transform="translate(0,0)"/>
<path d="" fill="#00FFFF" transform="translate(0,0)"/>
<path d="" fill="#00FFFF" transform="translate(0,0)"/>
<path d="" fill="#00FFFF" transform="translate(0,0)"/>
<path d="" fill="#00FFFF" transform="translate(0,0)"/>
<path d="" fill="#7FFFFF" transform="translate(0,0)"/>
<path d="" fill="#55AAFF" transform="translate(0,0)"/>
<path d="" fill="#7F7FFF" transform="translate(0,0)"/>
<path d="" fill="#00FFFF" transform="translate(0,0)"/>
<path d="" fill="#00FFFF" transform="translate(0,0)"/>
<path d="" fill="#00FFFF" transform="translate(0,0)"/>
<path d="" fill="#7FFFFF" transform="translate(0,0)"/>
<path d="" fill="#55AAFF" transform="translate(0,0)"/>
<path d="" fill="#7FBFFF" transform="translate(0,0)"/>
<path d="" fill="#00FFFF" transform="translate(0,0)"/>
<path d="" fill="#7F7FFF" transform="translate(0,0)"/>
<path d="" fill="#00FFFF" transform="translate(0,0)"/>
<path d="" fill="#7F7FFF" transform="translate(0,0)"/>
<path d="" fill="#55AAFF" transform="translate(0,0)"/>
<path d="" fill="#00FFFF" transform="translate(0,0)"/>
<path d="" fill="#00FFFF" transform="translate(0,0)"/>
<path d="" fill="#7FBFFF" transform="translate(0,0)"/>
<path d="" fill="#55AAFF" transform="translate(0,0)"/>
<path d="" fill="#55AAFF" transform="translate(0,0)"/>
<path d="" fill="#00FFFF" transform="translate(0,0)"/>
<path d="" fill="#00FFFF" transform="translate(0,0)"/>
<path d="" fill="#7F7FFF" transform="translate(0,0)"/>
<path d="" fill="#00FFFF" transform="translate(0,0)"/>
<path d="" fill="#00FFFF" transform="translate(0,0)"/>
<path d="" fill="#00FFFF" transform="translate(0,0)"/>
<path d="" fill="#00FFFF" transform="translate(0,0)"/>
<path d="" fill="#00FFFF" transform="translate(0,0)"/>
<path d="" fill="#55AAFF" transform="translate(0,0)"/>
<path d="" fill="#00FFFF" transform="translate(0,0)"/>
<path d="" fill="#7FFFFF" transform="translate(0,0)"/>
<path d="" fill="#3FBFFF" transform="translate(0,0)"/>
<path d="" fill="#00FFFF" transform="translate(0,0)"/>
<path d="" fill="#00FFFF" transform="translate(0,0)"/>
<path d="" fill="#7FFFFF" transform="translate(0,0)"/>
<path d="" fill="#00FFFF" transform="translate(0,0)"/>
<path d="" fill="#00FFFF" transform="translate(0,0)"/>
<path d="" fill="#00FFFF" transform="translate(0,0)"/>
<path d="" fill="#7F7FFF" transform="translate(0,0)"/>
<path d="" fill="#00FFFF" transform="translate(0,0)"/>
<path d="" fill="#00FFFF" transform="translate(0,0)"/>
<path d="" fill="#7F7FFF" transform="translate(0,0)"/>
<path d="" fill="#7FFFFF" transform="translate(0,0)"/>
<path d="" fill="#00FFFF" transform="translate(0,0)"/>
<path d="" fill="#00FFFF" transform="translate(0,0)"/>
<path d="" fill="#00FFFF" transform="translate(0,0)"/>
<path d="" fill="#7FBFFF" transform="translate(0,0)"/>
<path d="" fill="#55AAFF" transform="translate(0,0)"/>
<path d="" fill="#00FFFF" transform="translate(0,0)"/>
<path d="" fill="#7FFFFF" transform="translate(0,0)"/>
<path d="" fill="#00FFFF" transform="translate(0,0)"/>
<path d="" fill="#7FBFFF" transform="translate(0,0)"/>
<path d="" fill="#00FFFF" transform="translate(0,0)"/>
<path d="" fill="#55AAFF" transform="translate(0,0)"/>
<path d="" fill="#7F7FFF" transform="translate(0,0)"/>
<path d="" fill="#7FFFFF" transform="translate(0,0)"/>
<path d="" fill="#7F7FFF" transform="translate(0,0)"/>
<path d="" fill="#00FFFF" transform="translate(0,0)"/>
<path d="" fill="#00FFFF" transform="translate(0,0)"/>
<path d="" fill="#55AAFF" transform="translate(0,0)"/>
<path d="" fill="#55AAFF" transform="translate(0,0)"/>
<path d="" fill="#00FFFF" transform="translate(0,0)"/>
<path d="" fill="#00FFFF" transform="translate(0,0)"/>
<path d="" fill="#00FFFF" transform="translate(0,0)"/>
<path d="" fill="#00FFFF" transform="translate(0,0)"/>
<path d="" fill="#7F7FFF" transform="translate(0,0)"/>
<path d="" fill="#00FFFF" transform="translate(0,0)"/>
<path d="" fill="#00FFFF" transform="translate(0,0)"/>
<path d="" fill="#00FFFF" transform="translate(0,0)"/>
<path d="" fill="#7F7FFF" transform="translate(0,0)"/>
<path d="" fill="#00FFFF" transform="translate(0,0)"/>
<path d="" fill="#7F7FFF" transform="translate(0,0)"/>
<path d="" fill="#7F7FFF" transform="translate(0,0)"/>
<path d="" fill="#00FFFF" transform="translate(0,0)"/>
<path d="" fill="#66CCFF" transform="translate(0,0)"/>
<path d="" fill="#00FFFF" transform="translate(0,0)"/>
<path d="" fill="#00FFFF" transform="translate(0,0)"/>
<path d="" fill="#00FFFF" transform="translate(0,0)"/>
<path d="" fill="#7F7FFF" transform="translate(0,0)"/>
<path d="" fill="#7F7FFF" transform="translate(0,0)"/>
<path d="" fill="#7FFFFF" transform="translate(0,0)"/>
<path d="" fill="#55AAFF" transform="translate(0,0)"/>
<path d="" fill="#00FFFF" transform="translate(0,0)"/>
<path d="" fill="#7F7FFF" transform="translate(0,0)"/>
<path d="" fill="#55AAFF" transform="translate(0,0)"/>
<path d="" fill="#00FFFF" transform="translate(0,0)"/>
<path d="" fill="#00FFFF" transform="translate(0,0)"/>
<path d="" fill="#00FFFF" transform="translate(0,0)"/>
<path d="" fill="#66CCFF" transform="translate(0,0)"/>
<path d="" fill="#7F7FFF" transform="translate(0,0)"/>
<path d="" fill="#00FFFF" transform="translate(0,0)"/>
<path d="" fill="#00FFFF" transform="translate(0,0)"/>
<path d="" fill="#7FFFFF" transform="translate(0,0)"/>
<path d="" fill="#7F7FFF" transform="translate(0,0)"/>
<path d="" fill="#66CCFF" transform="translate(0,0)"/>
<path d="" fill="#7FAAFF" transform="translate(0,0)"/>
<path d="" fill="#7FBFFF" transform="translate(0,0)"/>
<path d="" fill="#55AAFF" transform="translate(0,0)"/>
<path d="" fill="#7F7FFF" transform="translate(0,0)"/>
<path d="" fill="#3FBFFF" transform="translate(0,0)"/>
<path d="" fill="#7F7FFF" transform="translate(0,0)"/>
<path d="" fill="#00FFFF" transform="translate(0,0)"/>
<path d="" fill="#00FFFF" transform="translate(0,0)"/>
<path d="" fill="#00FFFF" transform="translate(0,0)"/>
<path d="" fill="#00FFFF" transform="translate(0,0)"/>
<path d="" fill="#00FFFF" transform="translate(0,0)"/>
<path d="" fill="#55AAFF" transform="translate(0,0)"/>
<path d="" fill="#00FFFF" transform="translate(0,0)"/>
<path d="" fill="#55AAFF" transform="translate(0,0)"/>
<path d="" fill="#55AAFF" transform="translate(0,0)"/>
<path d="" fill="#7FFFFF" transform="translate(0,0)"/>
<path d="" fill="#00FFFF" transform="translate(0,0)"/>
<path d="" fill="#00FFFF" transform="translate(0,0)"/>
<path d="" fill="#00FFFF" transform="translate(0,0)"/>
<path d="" fill="#7F7FFF" transform="translate(0,0)"/>
<path d="" fill="#55AAFF" transform="translate(0,0)"/>
<path d="" fill="#55AAFF" transform="translate(0,0)"/>
<path d="" fill="#00FFFF" transform="translate(0,0)"/>
<path d="" fill="#55AAFF" transform="translate(0,0)"/>
<path d="" fill="#00FFFF" transform="translate(0,0)"/>
<path d="" fill="#55AAFF" transform="translate(0,0)"/>
<path d="" fill="#7FBFFF" transform="translate(0,0)"/>
<path d="" fill="#00FFFF" transform="translate(0,0)"/>
<path d="" fill="#00FFFF" transform="translate(0,0)"/>
<path d="" fill="#00FFFF" transform="translate(0,0)"/>
<path d="" fill="#55AAFF" transform="translate(0,0)"/>
<path d="" fill="#00FFFF" transform="translate(0,0)"/>
<path d="" fill="#7F7FFF" transform="translate(0,0)"/>
<path d="" fill="#7FFFFF" transform="translate(0,0)"/>
<path d="" fill="#7F7FFF" transform="translate(0,0)"/>
<path d="" fill="#00FFFF" transform="translate(0,0)"/>
<path d="" fill="#00FFFF" transform="translate(0,0)"/>
<path d="" fill="#55AAFF" transform="translate(0,0)"/>
<path d="" fill="#00FFFF" transform="translate(0,0)"/>
<path d="" fill="#00FFFF" transform="translate(0,0)"/>
<path d="" fill="#00FFFF" transform="translate(0,0)"/>
<path d="" fill="#00FFFF" transform="translate(0,0)"/>
<path d="" fill="#3FBFFF" transform="translate(0,0)"/>
<path d="" fill="#00FFFF" transform="translate(0,0)"/>
<path d="" fill="#00FFFF" transform="translate(0,0)"/>
<path d="" fill="#00FFFF" transform="translate(0,0)"/>
<path d="" fill="#55AAFF" transform="translate(0,0)"/>
<path d="" fill="#7F7FFF" transform="translate(0,0)"/>
<path d="" fill="#00FFFF" transform="translate(0,0)"/>
<path d="" fill="#3399FF" transform="translate(0,0)"/>
<path d="" fill="#00FFFF" transform="translate(0,0)"/>
<path d="" fill="#7F7FFF" transform="translate(0,0)"/>
<path d="" fill="#7F7FFF" transform="translate(0,0)"/>
<path d="" fill="#7F7FFF" transform="translate(0,0)"/>
<path d="" fill="#00FFFF" transform="translate(0,0)"/>
<path d="" fill="#00FFFF" transform="translate(0,0)"/>
<path d="" fill="#7F7FFF" transform="translate(0,0)"/>
<path d="" fill="#55AAFF" transform="translate(0,0)"/>
<path d="" fill="#00FFFF" transform="translate(0,0)"/>
<path d="" fill="#7F7FFF" transform="translate(0,0)"/>
<path d="" fill="#7F7FFF" transform="translate(0,0)"/>
<path d="" fill="#00FFFF" transform="translate(0,0)"/>
<path d="" fill="#3FBFFF" transform="translate(0,0)"/>
<path d="" fill="#55AAFF" transform="translate(0,0)"/>
<path d="" fill="#00FFFF" transform="translate(0,0)"/>
<path d="" fill="#00FFFF" transform="translate(0,0)"/>
<path d="" fill="#00FFFF" transform="translate(0,0)"/>
<path d="" fill="#00FFFF" transform="translate(0,0)"/>
<path d="" fill="#7F7FFF" transform="translate(0,0)"/>
<path d="" fill="#55AAFF" transform="translate(0,0)"/>
<path d="" fill="#55AAFF" transform="translate(0,0)"/>
<path d="" fill="#00FFFF" transform="translate(0,0)"/>
<path d="" fill="#55AAFF" transform="translate(0,0)"/>
<path d="" fill="#00FFFF" transform="translate(0,0)"/>
<path d="" fill="#7F7FFF" transform="translate(0,0)"/>
<path d="" fill="#7F7FFF" transform="translate(0,0)"/>
<path d="" fill="#00FFFF" transform="translate(0,0)"/>
<path d="" fill="#7F7FFF" transform="translate(0,0)"/>
<path d="" fill="#00FFFF" transform="translate(0,0)"/>
<path d="" fill="#3F7FFF" transform="translate(0,0)"/>
<path d="" fill="#3F7FFF" transform="translate(0,0)"/>
<path d="" fill="#7F7FFF" transform="translate(0,0)"/>
<path d="" fill="#00FFFF" transform="translate(0,0)"/>
<path d="" fill="#00FFFF" transform="translate(0,0)"/>
<path d="" fill="#007FFF" transform="translate(0,0)"/>
<path d="" fill="#00FFFF" transform="translate(0,0)"/>
<path d="" fill="#00FFFF" transform="translate(0,0)"/>
<path d="" fill="#007FFF" transform="translate(0,0)"/>
<path d="" fill="#3F7FFF" transform="translate(0,0)"/>
<path d="" fill="#55AAFF" transform="translate(0,0)"/>
<path d="" fill="#55AAFF" transform="translate(0,0)"/>
<path d="" fill="#7F7FFF" transform="translate(0,0)"/>
<path d="" fill="#007FFF" transform="translate(0,0)"/>
<path d="" fill="#55AAFF" transform="translate(0,0)"/>
<path d="" fill="#00FFFF" transform="translate(0,0)"/>
<path d="" fill="#00FFFF" transform="translate(0,0)"/>
<path d="" fill="#007FFF" transform="translate(0,0)"/>
<path d="" fill="#7F7FFF" transform="translate(0,0)"/>
<path d="" fill="#00FFFF" transform="translate(0,0)"/>
<path d="" fill="#00FFFF" transform="translate(0,0)"/>
<path d="" fill="#00FFFF" transform="translate(0,0)"/>
<path d="" fill="#00FFFF" transform="translate(0,0)"/>
<path d="" fill="#3399FF" transform="translate(0,0)"/>
<path d="" fill="#7F7FFF" transform="translate(0,0)"/>
<path d="" fill="#00FFFF" transform="translate(0,0)"/>
<path d="" fill="#7F7FFF" transform="translate(0,0)"/>
<path d="" fill="#7F7FFF" transform="translate(0,0)"/>
<path d="" fill="#7F7FFF" transform="translate(0,0)"/>
<path d="" fill="#55AAFF" transform="translate(0,0)"/>
<path d="" fill="#7F7FFF" transform="translate(0,0)"/>
<path d="" fill="#7F7FFF" transform="translate(0,0)"/>
<path d="" fill="#7F7FFF" transform="translate(0,0)"/>
<path d="" fill="#00FFFF" transform="translate(0,0)"/>
<path d="" fill="#00FFFF" transform="translate(0,0)"/>
<path d="" fill="#00FFFF" transform="translate(0,0)"/>
<path d="" fill="#7F7FFF" transform="translate(0,0)"/>
<path d="" fill="#000000" transform="translate(0,0)"/>
<path d="" fill="#00FFFF" transform="translate(0,0)"/>
<path d="" fill="#00FFFF" transform="translate(0,0)"/>
<path d="" fill="#00FFFF" transform="translate(0,0)"/>
<path d="" fill="#7F7FFF" transform="translate(0,0)"/>
<path d="" fill="#00FFFF" transform="translate(0,0)"/>
<path d="" fill="#00FFFF" transform="translate(0,0)"/>
<path d="" fill="#7F7FFF" transform="translate(0,0)"/>
<path d="" fill="#7F7FFF" transform="translate(0,0)"/>
<path d="" fill="#00FFFF" transform="translate(0,0)"/>
<path d="" fill="#00FFFF" transform="translate(0,0)"/>
<path d="" fill="#00FFFF" transform="translate(0,0)"/>
<path d="" fill="#7F7FFF" transform="translate(0,0)"/>
<path d="" fill="#7F7FFF" transform="translate(0,0)"/>
<path d="" fill="#00FFFF" transform="translate(0,0)"/>
<path d="" fill="#00FFFF" transform="translate(0,0)"/>
<path d="" fill="#00FFFF" transform="translate(0,0)"/>
<path d="" fill="#7F7FFF" transform="translate(0,0)"/>
<path d="" fill="#7F7FFF" transform="translate(0,0)"/>
<path d="" fill="#00FFFF" transform="translate(0,0)"/>
<path d="" fill="#00FFFF" transform="translate(0,0)"/>
<path d="" fill="#00FFFF" transform="translate(0,0)"/>
<path d="" fill="#7F7FFF" transform="translate(0,0)"/>
<path d="" fill="#00FFFF" transform="translate(0,0)"/>
<path d="" fill="#00FFFF" transform="translate(0,0)"/>
</svg>
